<?xml version="1.0" encoding="UTF-8"?>
<svg id="Ebene_1" xmlns="http://www.w3.org/2000/svg" version="1.1" viewBox="0 0 4616.03 2564.85">
  <!-- Generator: Adobe Illustrator 29.8.3, SVG Export Plug-In . SVG Version: 2.1.1 Build 3)  -->
  <defs>
    <style>
      .st0, .st1 {
        fill-rule: evenodd;
      }

      .st0, .st2 {
        fill: #fff;
      }

      .st3 {
        fill: #e6007e;
      }

      .st4 {
        fill: #ff22e0;
      }
    </style>
  </defs>
  <path d="M2541.24,1469.1c0,30.79,30.71,46.18,61.43,46.18s62.05-15.4,62.05-46.18v-116.01l50.14,128.11c10.03,25.29,33.85,34.09,65.81,34.09,36.98,0,57.66-14.29,57.66-41.79,0-6.05-1.88-12.1-4.39-17.59l-57.66-131.41c-3.14-6.6-5.02-11-5.02-14.84,0-2.75.63-7.15,2.51-11l57.04-118.21c3.76-7.7,5.02-13.74,5.02-19.79,0-23.64-26.33-34.64-56.41-34.64-35.73,0-53.28,12.65-65.82,41.23l-48.89,108.31v-103.36c0-30.79-30.71-46.18-61.43-46.18s-62.05,15.4-62.05,46.18v296.9h0Z"/>
  <path d="M1238.05,746.81c-.12-.08-.24-.15-.35-.23-4.11-2.7-8.18-5.47-12.2-8.29-.87-.62-1.77-1.21-2.69-1.76-3.03-1.81-6.25-3-9.53-3.59-3.61-2.21-7.2-4.48-10.78-6.83-4.11-2.7-8.18-5.47-12.2-8.29-.87-.62-1.77-1.21-2.69-1.76-8.53-5.1-18.63-5.31-27.24-.82-.79.41-1.56.85-2.31,1.32,0,0,.01,0,.02-.01-.66.41-1.3.84-1.94,1.27l-26.39,19.87c-1.69,1.05-3.32,2.19-4.87,3.41-2.4,1.88-4.59,3.98-6.53,6.26-4.29,5.05-7.17,10.94-8.4,17.23-.53,2.73-.76,5.5-.69,8.28.07,2.67.4,5.34.98,7.96,1,4.53,2.64,8.84,4.76,13.01,1.51,2.96,2.99,5.93,4.44,8.91,1.58,3.26,3.13,6.53,4.64,9.81,4.74,10.35,9.54,21.82,13.83,32.31,1.65,4.03,3.29,8.06,4.92,12.1,3.33,8.25,6.63,16.51,9.92,24.78,7.66,19.26,14.79,38.32,21.51,57.77,5.66,16.37,10.74,32.16,15.73,48.58-8.15,4.11-14.36,10.07-18.79,17.58-1.78,3.02-3.23,6.17-4.44,9.42-.5,1.35-.97,2.72-1.4,4.09h0c-1.25,4.03-2.25,8.27-3.05,12.44-.76,3.96-1.29,7.74-1.51,11.71-.15,2.67-.12,5.23.12,7.86.15,1.7.4,3.39.76,5.06.9,4.26,2.54,8.36,5.02,12.05,4.45,6.63,11.26,11.33,19.34,13.49,4.02,1.08,8.15,1.51,12.33,1.44.18,0,.36,0,.54-.01.81,1.93,1.81,3.78,2.99,5.55,3.38,5.03,8.11,8.95,13.72,11.49,1.75,8.9,3.38,17.95,4.76,26.04,2.7,15.82,6.62,41.02,8.07,58.52.14,1.69.25,3.38.34,5.07.07,1.51.16,3.01.29,4.51.15,1.91.39,3.81.7,5.7.39,2.37.91,4.55,1.64,6.8.96,2.94,2.29,5.76,4.06,8.36,2.64,3.85,6.17,6.99,10.45,9.15,5.98,3.02,12.92,3.81,19.52,2.34.3-.07.6-.14.9-.21.08.27.17.55.26.82.96,2.94,2.29,5.76,4.06,8.36,2.64,3.85,6.17,6.99,10.45,9.15,5.98,3.02,12.92,3.81,19.52,2.34,2.19-.49,4.32-1.2,6.34-2.13,2.7-1.23,5.2-2.79,7.5-4.58,1.17-.91,2.3-1.88,3.38-2.89l12.4-9.42v224.12c0,38.49,16.92,66.53,63.93,66.53h62.05c86.5,0,178.64-13.74,178.64-105.02,0-42.89-15.04-70.92-58.29-92.37-6.27-3.3-5.02-6.05,0-9.9,23.06-17.76,38.04-40.83,40.88-67.63l11.06-2.38c.31.68.63,1.36.97,2.03h0c1.13,2.28,2.31,4.36,3.67,6.52.82,1.3,1.69,2.57,2.6,3.8l9.07,12.18,15.85-3.41v187.63c0,38.49,16.92,66.53,63.93,66.53h122.85c27.58,0,46.38-20.89,46.38-46.73s-18.8-46.18-46.38-46.18h-39.49c-18.8,0-23.82-7.7-23.82-21.44v-166.37l66.03-14.21c1.67,2.27,3.54,4.38,5.61,6.3,2.31,2.15,4.83,4.06,7.52,5.69.58,1.5,1.23,2.98,1.94,4.43l.73,1.49.3.54c2.29,4.1,5.21,7.81,8.64,11.01,3.75,3.5,8.06,6.34,12.76,8.41l.22.09,4.23,1.76,5.81,1.45.52.1c1.28.26,2.57.48,3.87.65,1.14.15,2.29.29,3.43.4,2.31.22,4.64.37,6.97.44,3.05.12,6.1.17,9.15.17,4.58,0,9.15-.06,13.73-.18,4.61-.13,9.22-.27,13.83-.44,1.96-.07,3.93-.15,5.89-.24,3.81-.19,7.61-.33,11.42-.43,6.88-.18,18.61-.43,26.84-.61l12.18-22.91c1.7-3.19,3.45-6.35,5.26-9.47,1.83-3.19,3.78-6.3,5.85-9.35,1.63-2.38,3.38-4.67,5.22-6.89l9.53-11.16c1.55-1.85,3.08-3.71,4.59-5.59,1.54-1.91,3.08-3.82,4.61-5.75,3.17-3.98,6.73-8.51,10.39-13.19l67.64-14.56,3.66-2.33c1.51-.96,3-1.94,4.47-2.94,4.09-2.78,7.86-5.5,11.73-8.53,2.57-2.01,5.08-4.09,7.5-6.26,2.33-2.09,4.64-4.35,6.73-6.67,1.76-1.95,3.37-3.98,4.82-6.14.89-1.32,1.69-2.68,2.41-4.09,1.72-3.35,2.84-6.94,3.2-10.65.21-2.17.13-4.35-.22-6.51-.22-1.31-.45-2.63-.68-3.94-.43-2.45-.92-4.9-1.7-7.28-1.47-4.52-3.97-8.46-7.66-11.6-5.2-4.43-12.07-6.56-19.05-6.13-1.04.06-2.07.17-3.1.33,6.36-6.81,12.76-13.58,19.21-20.3,7.17-7.48,14.44-14.86,21.81-22.15,13.61,12.35,30.3,27.36,44.59,40.02,11.08,9.8,22.33,19.43,33.72,28.87,3.96,3.29,7.95,6.53,11.97,9.74l-27.92,25.69c-7.05-5.26-16.36-8.46-26.57-8.46-22.02,0-39.87,14.9-39.87,33.27,0,15.05,11.98,27.77,28.41,31.87l-.03,77.93h.05s-.01,0-.01,0l44.55,37.95-45.12,36.84.32.32-1.63,82.34c-15.46,4.58-26.53,16.89-26.53,31.36,0,18.37,17.85,33.27,39.87,33.27,10.07,0,19.27-3.12,26.29-8.26l156.13,121.31c-.06.74-.09,1.48-.09,2.24,0,18.37,17.85,33.27,39.87,33.27s39.87-14.89,39.87-33.27c0-.66-.02-1.32-.07-1.97l154.84-109.41-.14-.2h.57l.8-156.57c15.66-4.49,26.91-16.88,26.91-31.47s-11.07-26.78-26.52-31.36l.58-157.25c15.15-4.71,25.95-16.9,25.95-31.18,0-18.37-17.85-33.27-39.87-33.27-10.69,0-20.41,3.51-27.57,9.23l-112.25-78.78c-.45-18.05-18.13-32.56-39.86-32.56s-39.87,14.89-39.87,33.27c0,1.05.06,2.08.17,3.1l-23.67,21.78c-4.33-3.12-8.62-6.3-12.87-9.53l-5.78-4.4c-6.12-4.65-11.44-8.7-17.42-13.42-2.8-2.21-5.56-4.46-8.29-6.75-2.01-1.69-4.04-3.37-6.08-5.03-2.2-1.79-4.39-3.57-6.6-5.35-2.69-2.16-5.36-4.33-8.01-6.53-2.78-2.29-5.51-4.64-8.2-7.03-5.08-4.54-10.16-9.1-15.22-13.66-2.22-2-4.44-4-6.65-6,10.44-9.11,20.85-17.82,31.71-26.45,9.25-7.34,18.68-14.45,28.28-21.32,10.69-7.63,21.55-15.01,32.57-22.15,5.31-3.43,10.77-6.65,16.35-9.65,3.45-1.83,6.92-3.63,10.4-5.4,2.79-1.41,8.21-4.1,11.73-5.83,2.76-1.36,5.5-2.75,8.23-4.19,1.49-.79,2.97-1.59,4.44-2.42,1.7-.95,3.38-1.94,5.04-2.95,3.67-2.23,7.17-4.73,10.48-7.47,3.7-3.06,7.03-6.52,9.95-10.33,2.73-3.54,5.01-7.41,6.77-11.51,4.06-9.43,5.23-19.82,3.43-29.85-.97-5.41-2.77-10.63-5.35-15.49-2.63-5-5.91-9.63-9.77-13.77l-4.76-5.16c-1.69-1.83-3.42-3.61-5.21-5.34-2.52-4.58-5.6-8.83-9.17-12.66l-4.76-5.16c-2.08-2.25-4.23-4.43-6.46-6.53-1.25-1.17-2.52-2.31-3.83-3.42-1.56-1.33-3.17-2.6-4.83-3.8-10.06-7.32-21.8-11.31-34.31-11.08-2.18.04-4.37.2-6.53.49-2.19.29-4.36.7-6.51,1.24-4.19.96-8.32,2.17-12.36,3.64-2.12.77-4.22,1.61-6.29,2.51-2.09.91-4.17,1.86-6.22,2.86-2.97,1.44-5.62,2.6-8.54,3.87-5.77,2.5-11.45,5.23-17.01,8.17-3.65,1.91-7.27,3.88-10.86,5.91-3.9,2.2-7.77,4.45-11.61,6.75-7.76,4.66-15.79,9.74-23.44,14.8-7.62,5.05-15.16,10.23-22.6,15.53-8.28,5.9-16.45,11.95-24.51,18.15-14.1,10.82-27.93,21.98-41.48,33.47h0c-3.34,2.83-6.66,5.68-9.98,8.54-12.02-12.32-22.46-22.75-34.65-34.55-5.59-5.41-11.24-10.76-16.95-16.04-3.02-2.78-6.05-5.54-9.11-8.27-3.42-3.05-6.86-6.06-10.35-9.04-5.41-4.64-10.97-9.1-16.66-13.39l-6.14-4.69c-6.54-5.09-13.2-10.02-20-14.78-10.12-7.09-20.74-13.45-31.78-19.01-5.09-2.56-10.3-4.88-15.61-6.93-5.89-2.29-11.9-4.25-18.01-5.88l-.07-.02c-6.6-1.73-13.31-2.99-20.09-3.75-3.78-.42-7.59-.68-11.39-.76-4.26-.1-8.75,0-13.06.4-8.32.78-16.38,3.48-23.51,7.83-7.82,4.77-14.34,11.39-18.99,19.29-2.79,4.74-4.9,9.86-6.24,15.18-1.5-1.07-3.02-2.12-4.55-3.14-4.38-2.9-9.39-4.48-14.62-5.03-.65-.53-1.3-1.05-1.96-1.58-4.11-3.29-8.54-6.72-12.87-9.85-1.89-1.37-3.81-2.7-5.75-4.01-5.2-3.43-11.26-5.03-17.55-5.24h.03c-1.29-.04-2.58-.04-3.86.02-3.63.17-7.34.69-10.9,1.4-2.72.55-5.41,1.18-8.08,1.89-2.63.69-5.23,1.43-7.83,2.23-3.92,1.19-8.53,2.68-12.6,4.05-4.36,1.47-8.71,2.97-13.05,4.49-3.61,1.27-7.31,2.82-10.76,4.43-2.85,1.33-5.66,2.72-8.43,4.17-2.2,1.14-4.38,2.31-6.54,3.51-5.99,3.32-11.87,6.81-17.65,10.44l-10.92,6.88.67,12.22c.18,3.19.33,6.38.45,9.57.7,17.67.96,35.36.8,53.04-.09,10.89-.38,21.78-.86,32.66-.31,6.96-.71,13.91-1.22,20.86-.55,7.62-1.25,15.23-2.11,22.83-.43,3.76-.9,7.51-1.43,11.26-.58,4.13-1.23,8.25-1.95,12.36-.66,3.76-1.4,7.52-2.23,11.26-2.4.21-6.85.58-9.4.79-7.33.6-15.06,1.25-22.37,2.11-1.96.23-3.91.48-5.86.76-4.5.64-8.91,1.42-13.33,2.44-4.07.94-8.16,2.15-12.04,3.68-5.9,2.32-11.36,5.42-15.94,9.62-.88.81-1.71,1.66-2.48,2.57-.41.48-.81.96-1.19,1.46-2.64,3.38-5.49,8.02-7.6,11.71-1.94,3.37-3.77,6.8-5.5,10.26-1.46,2.93-2.82,5.89-4.08,8.9-.79,1.91-1.52,3.84-2.18,5.79-.42,1.27-.81,2.54-1.14,3.83-1.46,5.58-1.81,11.11-.13,16.69.95,3.16,2.54,6.12,4.69,8.72,3.24,3.89,7.54,6.75,12.56,8.38l-7.32,4.41c-2.19,1.31-4.36,2.64-6.53,3.97-8.43,5.27-16.9,10.49-25.4,15.67l-31.06-148.31,19.83-5.03c6.41-1.64,13.23-4.45,19.12-7.32,2.68-1.3,5.32-2.68,7.91-4.13,10.42-5.81,20.94-13.07,29.63-21.12,1.28-1.19,2.54-2.42,3.76-3.66,1.45-1.49,2.85-3.02,4.18-4.6,3.69-4.39,5.93-9.59,6.86-15.06.55-3.26.69-6.54.48-9.83-.14-2.3-.42-4.58-.84-6.85-.81-4.44-1.98-8.67-3.46-12.95-.55-1.6-1.15-3.18-1.81-4.74l-7.23-17.29-19.56,3.88c-1.76.35-3.52.69-5.29,1-.07.01-.15.03-.22.04-.34-1.12-.72-2.24-1.1-3.36-.55-1.6-1.15-3.18-1.81-4.74l-7.23-17.29-19.56,3.88c-1.76.35-3.52.69-5.29,1-17.41,3.18-36.03,5.9-53.58,7.93-10.56,1.23-21.14,2.24-31.75,3.03-6.97.52-13.95.93-20.93,1.22-7.62.32-15.25.47-22.88.46-5.16-.01-10.32-.08-15.49-.2-5.76-.13-11.53-.35-17.29-.66-5.77-.3-11.53-.71-17.28-1.23-6.41-.58-12.8-1.31-19.17-2.19-5.55-.78-11.08-1.66-16.59-2.67-2.93-.53-5.85-1.09-8.77-1.68-12.9-2.6-26.21-5.79-39.06-8.88l-10.3-2.47c-2.41-.58-4.82-1.16-7.23-1.77-7.97-2-15.89-4.23-23.57-7.05-2.37-.87-4.73-1.8-7.06-2.78-2.63-1.11-5.23-2.26-7.8-3.46-2.67-1.25-5.32-2.53-7.96-3.85-2.24-1.12-4.47-2.25-6.7-3.4h0l-.03.02ZM1374.86,1135.86c-.42-1.91-.85-3.82-1.29-5.72-1.31-5.66-2.68-11.3-4.11-16.94-1.76-6.95-3.57-13.89-5.44-20.81-.91-3.39-1.84-6.78-2.78-10.17l70.54-15.47,1.48-.53c2.08-.74,4.09-1.64,6.01-2.67,2.55-1.37,4.91-3.03,7.03-4.93.55-.49,1.09-1,1.61-1.53,1.61,8.31,3.1,16.65,4.47,25,1.32,8.12,2.52,16.26,3.62,24.41,1.19,8.94,2.28,17.89,3.27,26.85.02.21.05.43.07.64h-65.13c-7.13,0-13.56.64-19.36,1.87h0ZM1429.04,974.95c-1.27-.09-2.55-.1-3.84-.04-.87.04-1.73.1-2.6.19-.67.07-1.35.16-2.02.25-.11.01-.22.03-.33.04-.19-.75-.42-1.49-.67-2.22-1.49-4.29-4.01-8.14-7.47-11.26-4.24-3.82-9.66-6.29-15.49-7.15-2.19-.32-4.41-.44-6.62-.34-.87.04-1.73.1-2.6.19-.67.07-1.35.16-2.02.25-5.24.74-10.48,1.46-15.73,2.15-9.51,1.25-16.27,2.06-26.44,3.3-7.83.95-14.81,1.85-22.34,2.93-10.08-26.31-22.38-54.94-33.1-79.05,1.09.44,2.19.88,3.29,1.31,18.36,7.18,37.21,12.62,56.74,16.32,7.27,1.38,14.59,2.52,21.95,3.43,11.91,1.46,23.85,2.71,35.82,3.73.81.07,1.61.13,2.42.2.69,1.79,1.36,3.58,2.04,5.37,1.12,2.98,2.22,5.97,3.3,8.98,6.03,16.87,11.19,34.11,15.73,51.41h0ZM1825.67,1099.15c.09-.26.17-.52.25-.78,4.89-15.02,9.14-30.15,12.68-45.48.86-3.73,1.67-7.46,2.45-11.21l115.95-12.33c-4.22,4.56-8.43,9.14-12.63,13.72-.34.37-.68.75-1.01,1.14-11.8,14.11-23.63,28.18-35.49,42.23l-82.2,12.7h0ZM2044.79,937.94l-.87.04c-.19-.84-.43-1.67-.7-2.51-.98-2.95-2.51-5.72-4.51-8.18-2.81-3.44-6.52-6.16-10.78-7.9-3.29-1.35-6.82-2.09-10.42-2.24-1.82-.07-3.66,0-5.47.21l-156.59,7.25c1.55-18.47,2.59-37.25,3.06-55.68l22.9,21.85,9.52-4.04,25.68,24.51,93.42-39.64c4.5,4.19,8.82,7.81,13.6,11.9,3.17,2.71,6.45,5.62,9.41,8.56l26.48,26.37c.86.85,1.72,1.71,2.57,2.56-1.89,1.69-3.78,3.44-5.57,5.22-3.92,3.9-7.83,7.8-11.74,11.72h0ZM1474.85,1222.59c17.03,1.16,22.79,15.39,22.79,29.61,0,12.1-6.27,28.04-25.07,28.04s-25.07-15.95-25.07-28.04c0-13.42,5.12-26.84,19.99-29.29l.35,4.15,7.01-4.48h0ZM1501.4,1392.96c0,15.95-6.9,35.74-26.95,35.74-21.94,0-26.95-23.09-26.95-35.74,0-16.49,9.4-31.34,26.95-31.34s26.95,14.84,26.95,31.34h0ZM2277.98,1129.7c4.26,3.22,8.56,6.39,12.89,9.52,4.75,3.34,9.5,6.69,14.24,10.05l1.91,1.35c.89.63,1.78,1.24,2.68,1.84,1.92,1.28,3.48,2.17,5.59,3.32-5.42,4.61,33.33,23.31,28.48,28.51,0,0,5.49-3.45,14.26-8.98l20.75,14.32,17.06-9.75c1.3-.89,13.2,10.78,14.62,10.1,1.59-.76,6.66,9.54,8.35,9.05.43-.12,1.22-.47,2.2-.93l-1.25,108.38h-157.74l-43.01-35.78-.13-70.7c16.64-4,28.81-16.8,28.81-31.97,0-3.06-.5-6.03-1.43-8.85l31.72-29.48h0ZM2443.22,1223.77c6.15,2.97,11.01,3.93,15.15,4.66,12.2,2.17,18.5,1.77,26.46,1.38,6.34-.31,11.44-2.2,14.53-4.02,2.4-1.41,4.71-2.96,6.92-4.66,7.9-6.06,14.13-13.76,18.42-22.75,1.31-2.75,2.44-5.58,3.38-8.48.97-3,1.75-6.05,2.33-9.14.55-2.89.96-5.8,1.21-8.73.27-3.02.39-6.04.39-9.07,0-6.85-.77-13.59-2.52-20.22-.72-2.74-1.61-5.43-2.67-8.06-2.07-5.15-4.79-10-8.11-14.45-1.74-2.33-3.63-4.54-5.66-6.62-1.92-1.96-3.96-3.81-6.09-5.53l-8.99-8.31c-.84-.81-1.71-1.6-2.6-2.36-.91-.78-1.84-1.54-2.79-2.27-1.73-1.34-3.49-2.63-5.29-3.87-3.17-2.27-6.35-4.53-9.53-6.78-3.71-2.62-7.46-5.19-11.25-7.69-1.87-1.23-3.76-2.44-5.66-3.62-2.15-1.34-4.34-2.65-6.54-3.91-2.31-1.33-4.66-2.59-7.04-3.8-.73-.37-1.47-.74-2.21-1.1l.45-39.02c8.86-2.39,16.37-7.29,21.31-13.7l107.33,76.39c-.71,2.49-1.09,5.08-1.09,7.75,0,15.91,13.39,29.22,31.28,32.5l-.57,154.91c-14.08,2.76-25.28,11.75-29.21,23.29h-132.31l.96-82.72h0ZM2422.68,1053.68c-3.19-1.81-6.33-3.7-9.39-5.64-4.41-2.78-9.24-5.99-13.69-9.01-2.3-1.56-4.59-3.12-6.88-4.69-2.33-1.6-4.66-3.18-7-4.77l16.34-15.19c5.26,5.51,12.56,9.59,20.95,11.45l-.32,27.84h0ZM2603.38,1347.89l-.73,144.93-140.68,102.49c-4.9-5.47-11.75-9.63-19.71-11.77v-258.28h132.51c4.06,11.15,14.95,19.82,28.6,22.63h0ZM2398.23,1595.13l-152.07-119.33c.99-2.9,1.52-5.97,1.52-9.14,0-15.74-13.09-28.92-30.69-32.38l1.46-73.55,42.35-35.45h158.95v257.79c-8.7,1.93-16.23,6.25-21.53,12.07h0Z"/>
  <path class="st0" d="M2134.76,994.41h0s0,0,0,0c4.8-4.73,9.4-9.16,14.05-13.47.26.22.51.45.77.68,18.69,17.1,40.88,37.11,59.83,53.9,10.6,9.39,22.25,19.35,33.14,28.38h-.01c12.72,10.55,25.79,20.68,39.19,30.36,27.64,19.4,12.11,9.17,34.54,22.07,9.81,5.64,28.31,15.2,33.89,18.01-53.43,34.64-97.04,99.99-97.04,167.79,0,98.97,50.62,194.64,170.96,194.64,45.13,0,120.09-44.33,80.86-52.78-60.44-13.02-53.7-30.04-81.53-44.15-46.96-23.81-55.74-60.87-55.74-97.71s14.42-89.62,67.07-89.62c36.35,0,70.2-7.7,70.2-52.23,0-14.33-4.6-24.44-12.55-31.78l.7-.64-2.99-1.32c-6.6-5.27-15.13-8.97-25.01-11.75-1.99-.9-3.96-1.74-5.15-2.55-12.9-9.18-19.14-16.17-33.86-22.13l-5.06-7.09c-20.19-8.19-32.14-20.04-52.45-33.76l-19.3-12.01c-9.54-6.46-.66-1.39-9.83-8.37l-3.64-4c-10.23-7.8-21.84-16.1-31.67-24.39-9.92-8.37-20.9-17.56-30.58-26.21-12.04-10.75-21.17-15.73-33.13-26.58-8.93-8.1-15.27-14.02-23.66-22.21-2.46-2.4,0-6.1-2.29-8.4.45-.4.89-.81,1.33-1.2,17.91-16.32,34.75-30.93,53.31-45.68h-.01c9.57-7.58,19.32-14.93,29.25-22.04h-.02c10.99-7.83,22.15-15.42,33.48-22.76h-.01c5.87-3.79,11.9-7.34,18.07-10.65,8.92-4.72,13.74-7.11,22.82-11.59,5.12-2.52,10.88-5.48,15.84-8.54,2.72-1.65,5.3-3.49,7.75-5.52,2.34-1.93,4.45-4.13,6.29-6.54,7.11-9.2,8.16-21.32,2.72-31.6-1.67-3.19-3.76-6.13-6.22-8.76l-4.81-5.21c-3.39-3.66-7.51-7.69-11.68-10.69-8.43-6.14-17.99-8.05-28.11-5.5-7.33,1.66-13.1,3.93-20.07,7.29-3.66,1.77-5.72,2.67-9.47,4.3-5.22,2.26-10.35,4.72-15.37,7.38h.01s-.02,0-.03.01h.03s-.01,0-.03,0c-28.87,15.12-62.26,37.92-89.65,58.99h.02c-13.8,10.57-27.34,21.5-40.61,32.76-8.93,7.57-17.75,15.26-26.46,23.07-6.94-7.26-13.92-14.47-20.96-21.63-9.44-9.62-19.01-19.12-28.7-28.49-11.06-10.71-23.42-22.21-35.34-32.37-5.06-4.34-10.26-8.51-15.58-12.52l-6.29-4.8c-6.25-4.88-12.63-9.59-19.13-14.14h.02c-9.2-6.44-18.85-12.22-28.88-17.27-9.2-4.63-19.16-8.45-29.11-11.1-5.41-1.44-11.18-2.5-16.74-3.13-6.13-.69-13.51-.89-19.64-.31-10.16.95-19.32,6.9-24.46,15.66-4.47,7.54-5.78,16.55-4.07,25.11.82,4.15,2.49,8.16,4.82,11.69,1.67,2.55,3.64,4.99,5.79,7.16,3.29,3.3,7,6.4,10.83,9.06,3.18,2.24,6.45,4.35,9.8,6.32h-.01c3.47,2.05,6.99,4.02,10.56,5.92,19.4,10.45,39.33,21.13,55.11,36.49,8.65,8.43,17.48,14.83,26.04,23.35l26.49,26.39h0c9.02,8.99,18.13,17.9,27.31,26.73,4.94,4.76,8.8,10.62,13.86,15.25-7.34,7.06-18.14,15.37-25.07,22.25h-.01c-38.02,37.8-75.15,76.48-111.35,116.03l-.31.34-.3.36c-18.26,21.83-36.6,43.59-55.02,65.29-5.16,6.08-10.14,11.86-15.39,17.85-2.37,2.66-4.7,5.35-7,8.07h-.01s.01,0,.01,0c0,0-.01.01-.02.02h0c-2.81,3.3-5.49,6.71-8.03,10.23-3.13,4.25-5.9,8.95-8.06,13.76-1.61,3.59-2.72,7.46-3.27,11.36-.93,6.36.1,12.86,2.93,18.63l.46.93c2.28,4.12,6.05,7.5,10.36,9.39l2.38.99,3.58.89c2.86.59,7.37.96,10.43,1.04,2.78.1,5.57.16,8.36.16h0c4.37,0,8.74-.06,13.11-.17,4.42-.12,14.83-.44,19.22-.66,8.5-.43,16.63-.56,25.13-.76l5.72-10.77c1.82-3.42,3.7-6.81,5.64-10.16v-.02c2.18-3.76,4.36-7.26,6.81-10.85,2.08-3.04,4.31-5.97,6.68-8.8l9.47-11.08c13.18-15.69,49.98-63.8,67.93-87.46,16.89-18.91,34.12-37.52,51.67-55.82,7.96-8.3,16.04-16.49,24.24-24.56h0ZM1880.05,1148.14s.01-.01.02-.02l-.02.02h0ZM2309.53,739.76l-.03.02s.02-.01.03-.02h0Z"/>
  <polygon class="st0" points="1999.97 990.92 1999.96 990.92 1999.97 990.92 1999.97 990.92"/>
  <path class="st0" d="M2281.73,1094.27s0,0,.01,0h-.01Z"/>
  <path class="st2" d="M2450.5,1229.37c36.35,0,70.2-7.81,70.2-53.03,0-40.75-35.73-53.59-80.86-53.59-120.34,0-181.77,97.13-181.77,197.62s61.43,197.62,181.77,197.62c45.13,0,80.86-12.84,80.86-53.59,0-45.22-33.85-53.03-70.2-53.03-52.65,0-67.07-53.59-67.07-91s14.42-91,67.07-91h0Z"/>
  <path class="st0" d="M1540.32,1103.25l.09.44c-3.86,1.96-3.59,1.67-.09-.44h0ZM1426.3,868.19c.51-.07,1.18-.1,2.06-.06,1.75.07.9.12-2.06.06h0ZM1426.3,868.19c-4.09.6,2.27,4.69-1.27,9.95-4.63,6.86,10.66,23.79,29.92,101.7,19.25,77.9,25.44,115.31,33.19,206.15l221.52-141.46s-6.35,25.61-18.73,45.52c-11.39,18.31-17.99,31.06-35.5,52.32-16.34,19.84-46.42,43.72-46.42,43.72,0,0,1.51,13.8,5.43,23.35,2.35,5.72,5.56,9.9,5.56,9.9l454.16-97.74s32.45-20.43,30.72-30.55c-1.88-10.95-1.8-11.35-7.25-9.99-8.27,2.07-38.09,5.6-38.09,5.6l-89.77,10.53-228.09,35.24s11.67-20.36,20.25-43.95c13.92-38.29,20.37-68.16,23.93-88.8l213.61-22.71c2.84-.37,3.45-.61,6.05-2.31,5.88-3.84,26.28-40.21,8.89-37.39l-222.67,10.3s12.66-82.7,7.05-168.73l88.01,83.99,69.95-29.67s-89.16-86.55-124.9-110.38c-6.27-4.18-27.81,3.08-51.93,11.48-15.11,5.27-38.47,20.19-38.47,20.19,0,0,7.45,127.34-13.01,194.89-33.12,4.05-68.75,3.26-81.44,14.94-3.67,3.38-17.56,27.8-18.38,37.07-.5,5.66,3.46,6.43,10.03,4.6,14.35-3.99,42.93-2.15,63.4-2.43-16.36,12.56-71.18,44.91-79.37,50.02-39.17,24.48-72.81,43.9-82.37,49.68l-49.55-236.54s12.97-3.27,40.75-10.32c13.79-3.5,39.53-18.09,52.35-33.24,6.63-7.84-2.13-28.19-2.13-28.19,0,0-70.93,14.32-139.4,14.13-68.46-.19-98.58-8.44-149.74-20.66-29.36-7.01-41.57-11.77-67.99-25.46-17.23-8.93-32.45-18.38-48.45-29.6-2.5-1.76-3.07-1.76-5.66-.03l-26.82,20.19c-5.84,3.45-16.4,11.53-7.39,29.24,10.36,20.37,17.15,35.9,38.55,89.7,22.53,56.63,34.36,96.2,43.84,128.05-19.04,3.84-27.93,5.87-33.18,33.16-4.61,23.99,4.24,27.72,18.43,25.5,14.94-2.33,12.84-2.25,25.48-3.67,7.5,20.99,21.43,101.88,22.92,131.64.35,6.94,1.29,25.32,14.5,12.25l46.26-35.15c13.54-9.62,7.55-26.38,5.76-36.04-4.55-24.6-18.42-74.43-21.71-84.21l92.59-20.31c7.39-2.67,10.82-8.19,9.92-21.88l-1.83-21.37c-.66-6.9-6.09-6.18-8.77-5.8-47.56,6.71-52,5.48-110.86,15.97-10.3-35.99-36.83-99.58-73.6-177.89,41.82,25.3,81.62,42.38,133.12,48.75,41.59,5.15,78.16,6.53,88.57,6.73h0v.02ZM2004.14,1001.87h-.01.01Z"/>
  <path d="M2197.74,1325.45c0-92.92-36.98-194.64-160.46-194.64s-160.46,101.72-160.46,194.64,36.98,194.64,160.46,194.64,160.46-101.72,160.46-194.64h0ZM2000.3,1325.45c0-47.28,4.39-95.12,36.98-95.12s36.98,47.83,36.98,95.12-4.39,95.12-36.98,95.12-36.98-47.83-36.98-95.12h0Z"/>
  <path class="st4" d="M2352.78,1143.25c-63.82,33.53-96.21,104.72-96.21,177.69,0,100.48,61.43,197.62,181.77,197.62,45.13,0,80.86-12.84,80.86-53.59,0-45.22-33.85-53.03-70.2-53.03-52.65,0-67.07-53.59-67.07-91s14.42-91,67.07-91c36.35,0,70.2-7.81,70.2-53.03,0-19.72-8.36-32.9-22.11-41.26-26.25-19.48-52.51-37.44-73.83-51.58-23.17-15.37-37.21-24.61-57.52-38.33h.02c-9.54-6.45-18.9-13.17-28.06-20.15h.01c-10.23-7.8-22.57-17-32.4-25.29-9.92-8.37-19.73-15.73-29.41-24.39-12.04-10.75-20.13-18.07-32.08-28.91-8.93-8.1-15.34-14.16-23.73-22.34-2.46-2.4-4.81-4.72-7.11-7.02.45-.4.89-.81,1.33-1.2,17.91-16.32,34.75-30.93,53.31-45.68h-.01c9.57-7.58,19.32-14.93,29.25-22.04h-.02c10.99-7.83,22.15-15.42,33.48-22.76h-.01c5.87-3.79,11.9-7.34,18.07-10.65,8.92-4.72,13.74-7.11,22.82-11.59,5.12-2.52,10.88-5.48,15.84-8.54,2.72-1.65,5.3-3.49,7.75-5.52,2.34-1.93,4.45-4.13,6.29-6.54,7.11-9.2,8.16-21.32,2.72-31.6-1.67-3.19-3.76-6.13-6.22-8.76l-4.81-5.21c-3.39-3.66-7.51-7.69-11.68-10.69-8.43-6.13-17.99-8.05-28.11-5.5-7.33,1.66-13.1,3.93-20.07,7.29-3.66,1.77-5.72,2.67-9.47,4.3-5.22,2.26-10.35,4.72-15.38,7.38h.01s-.02,0-.03.01h.03s-.01,0-.03,0c-28.87,15.12-62.26,37.92-89.65,58.99h.02c-13.8,10.57-27.34,21.5-40.61,32.76-8.93,7.57-17.75,15.26-26.46,23.07-6.94-7.26-13.92-14.46-20.96-21.63-9.44-9.62-19.01-19.12-28.7-28.49-11.06-10.71-23.42-22.21-35.34-32.37-5.06-4.34-10.26-8.51-15.58-12.52l-6.29-4.8c-6.25-4.88-12.63-9.59-19.13-14.14h.02c-9.2-6.44-18.85-12.22-28.88-17.27-9.2-4.63-19.16-8.45-29.11-11.1-5.41-1.44-11.18-2.5-16.74-3.13-6.13-.69-13.51-.89-19.64-.31-10.16.95-19.32,6.9-24.46,15.66-4.47,7.54-5.78,16.55-4.07,25.11.82,4.15,2.49,8.16,4.82,11.69,1.67,2.55,3.64,4.99,5.79,7.16,3.29,3.3,7,6.4,10.83,9.06,3.18,2.24,6.45,4.35,9.8,6.32h-.01c3.47,2.05,6.99,4.02,10.56,5.92,19.4,10.45,39.33,21.13,55.11,36.49,8.65,8.43,17.48,14.83,26.04,23.35l26.49,26.39h0c9.02,8.99,18.13,17.9,27.31,26.73,4.94,4.76,8.8,10.62,13.86,15.25-7.34,7.06-18.14,15.37-25.07,22.25h-.01c-38.02,37.8-75.15,76.48-111.35,116.03l-.31.34-.3.36c-18.26,21.83-36.6,43.59-55.02,65.29-5.16,6.08-10.14,11.86-15.39,17.85-2.37,2.66-4.7,5.35-7,8.07h-.01s.01,0,.01,0c0,0-.01.01-.02.02h0c-2.81,3.3-5.49,6.71-8.03,10.23-3.13,4.25-5.9,8.95-8.06,13.76-1.61,3.59-2.72,7.46-3.27,11.36-.93,6.36.1,12.86,2.93,18.63l.46.93c2.28,4.12,6.05,7.5,10.36,9.39l2.38.99,3.58.89c2.86.59,7.37.96,10.43,1.04,2.78.1,5.57.16,8.36.16h0c4.37,0,8.74-.06,13.11-.17,4.42-.12,14.83-.44,19.22-.66,8.5-.43,16.63-.56,25.13-.76l5.72-10.77c1.82-3.42,3.7-6.81,5.64-10.16v-.02c2.18-3.76,4.36-7.26,6.81-10.85,2.08-3.04,4.31-5.97,6.68-8.8l9.47-11.08c13.18-15.69,49.98-63.8,67.93-87.46,16.89-18.91,34.12-37.52,51.67-55.82,7.96-8.3,16.04-16.49,24.24-24.56h0s0,0,0,0c4.8-4.73,9.4-9.16,14.05-13.47.26.22.51.45.77.68,18.69,17.1,40.88,37.11,59.83,53.9,10.6,9.39,22.25,19.35,33.14,28.38h-.01c12.72,10.55,25.79,20.12,39.19,29.8,27.64,19.4,14.4,10.38,33.98,23.76,8.9,6.08,16.87,11.99,38.57,25.21h0ZM1878.55,1148.73s.01-.01.02-.02l-.02.02h0ZM2308.03,740.35l-.03.02s.02-.01.03-.02h0Z"/>
  <polygon class="st3" points="1998.47 991.5 1998.46 991.5 1998.47 991.5 1998.47 991.5"/>
  <path class="st3" d="M2280.24,1094.28s0,0,.01,0h-.01Z"/>
  <path class="st1" d="M2450.41,1241.36c8.54.08,17.07-.47,25.53-1.64h.03c4.64-.66,9.48-1.73,13.99-3.05,5.44-1.58,10.67-3.84,15.58-6.71,14.2-8.27,22.71-22.01,25.59-37.84.95-5.21,1.42-10.5,1.39-15.8.01-4.45-.38-8.89-1.18-13.26-3-17.04-13.23-30.53-27.65-38.86h0c-4.67-2.7-9.6-4.93-14.71-6.63h.01c-5.29-1.78-10.71-3.16-16.2-4.14h.02c-5.26-.94-10.56-1.63-15.89-2.03-5.68-.44-11.38-.66-17.08-.64-10.8-.02-21.58.76-32.26,2.34-12.1,1.78-24,4.73-35.55,8.81-52.23,18.38-90.13,59.36-109.79,110.49-5.13,13.32-9.03,27.1-11.66,41.16-2.89,15.43-4.34,31.09-4.33,46.8-.06,24.66,3.58,49.41,10.78,72.96,3.79,12.41,8.77,24.61,14.68,36.13,6.62,12.89,14.62,24.99,23.87,36.09h0c16.95,20.37,38.32,36.73,62.32,47.6,12.29,5.57,25.4,9.81,38.59,12.52,14.23,2.92,28.82,4.37,43.34,4.32,13.77.07,28.41-1.17,41.92-4.66,16.25-4.14,31.85-12.4,41.37-26.91,3.2-4.88,5.67-10.45,7.15-16.11,1.53-5.82,2.28-11.92,2.24-17.94.01-3.91-.24-7.81-.73-11.69v.03c-.58-4.64-1.65-9.21-3.18-13.64-5.21-15.36-16.78-26.66-31.89-32.65-4.94-1.96-10.06-3.45-15.27-4.46h.03c-4.96-.96-9.97-1.64-15.01-2.02h0c-5.33-.4-10.66-.6-16-.58-7.22.02-14.08-1.17-20.61-4.03-3.32-1.46-6.44-3.35-9.29-5.62-3.25-2.6-6.16-5.62-8.66-8.98-5.56-7.48-9.64-16.79-12.16-25.96-5.5-20.39-5.94-42.29-1.47-62.94,2.17-9.96,5.47-19.1,10.72-27.62,2.06-3.32,4.45-6.41,7.15-9.22,2.85-2.96,6.09-5.5,9.63-7.55,3.49-2,7.23-3.51,11.13-4.48,4.42-1.09,8.95-1.63,13.5-1.6h0ZM2371.62,1320.37c-.01,16.99,2.65,34.69,8.57,50.75v-.02c6.47,17.68,17.53,33.57,33.93,43.04,5.34,3.08,11.22,5.45,17.19,6.93,6.25,1.55,12.85,2.34,19.28,2.29,7.49-.06,14.7.39,22.13,1.42,3.67.53,7.14,1.3,10.71,2.34,3.67,1.08,7.02,2.51,10.33,4.45,4.9,2.87,8.81,7.11,11.25,12.29,2.94,6.35,3.88,13.54,3.88,20.53,0,6.35-.96,12.12-3.67,17.67-1.32,2.66-3.02,5.09-5.06,7.23-8.09,8.4-20.46,12.42-31.47,14.4-9.53,1.71-19.19,2.31-28.85,2.31-20.91,0-40.62-2.97-60.07-9.82-21.52-7.58-41.04-19.96-57.19-36.28h0c-7.96-8.05-15.07-16.93-21.22-26.48-21.5-33.44-31.46-73.34-31.49-113.05-.02-22.43,3.18-44.39,9.71-65.83,14.16-46.16,43.93-85.04,87.93-105.02,10.79-4.87,22.07-8.53,33.65-10.92,13.04-2.67,25.38-3.83,38.68-3.84,8.31,0,15.74.42,23.99,1.53,8.72,1.2,16.7,3.16,24.53,6.85,2.96,1.4,5.75,3.13,8.33,5.16,2.62,2.06,4.91,4.54,6.76,7.34,1.79,2.76,3.14,5.79,3.99,8.98,1.02,3.93,1.45,7.64,1.44,11.71-.03,11.81-2.48,23.66-12.45,31.06-2.57,1.88-5.36,3.43-8.32,4.6-3.62,1.43-7.29,2.5-11.1,3.24-8.3,1.61-17.77,2.2-26.48,2.17-4.76-.01-9.52.39-14.22,1.21-24.63,4.31-42.33,20.56-52.6,42.61-2.73,5.85-5.04,12.12-6.74,18.37-3.59,13.2-5.39,27.11-5.36,40.81h0Z"/>
</svg>