<?xml version="1.0" encoding="UTF-8"?>
<svg id="Ebene_1" data-name="Ebene 1" xmlns="http://www.w3.org/2000/svg" viewBox="0 0 1720.83 2104.36">
  <defs>
    <style>
      .cls-1 {
        fill-rule: evenodd;
      }
    </style>
  </defs>
  <path class="cls-1" d="M732.61,763.28s0,0,.01-.01c0,0,0,0,.01-.01,12.82-12.62,25.09-24.46,37.51-35.95.69.6,1.37,1.21,2.05,1.82,49.9,45.64,109.12,99.07,159.71,143.89,28.29,25.06,59.39,51.65,88.49,75.76l-.04-.04c33.95,28.2,68.84,55.25,104.61,81.1,73.8,51.79,32.34,24.47,92.2,58.91,29.42,16.93,35.87,22.04,54.96,31.13-167.43,89.08-252.39,274.7-252.39,464.87,0,264.2,163.98,519.6,485.25,519.6,120.48,0,215.85-33.76,215.85-140.91,0-118.89-90.36-139.44-187.41-139.44-140.56,0-179.04-140.91-179.04-239.25s38.49-239.25,179.04-239.25c97.05,0,187.41-20.55,187.41-139.44,0-44.85-16.71-76.84-44.98-98.88l-26.37-24.35c-5.86-5.79-14.51-12.18-21.31-16.83-34.44-24.52-78.48-56.91-117.78-72.82h.04c-53.9-21.85-102.99-57.79-157.21-94.42l.05.04c-25.47-17.25-50.45-35.2-74.92-53.84l.03.02c-27.3-20.83-60.24-45.39-86.5-67.53-26.49-22.34-52.67-42-78.52-65.1-32.13-28.71-53.73-48.23-85.64-77.18-23.85-21.63-40.95-37.79-63.36-59.63-6.57-6.4-12.84-12.59-18.97-18.74,1.2-1.08,2.38-2.15,3.54-3.21,47.82-43.56,92.78-82.58,142.31-121.96l-.03.03c25.54-20.27,51.57-39.9,78.09-58.87l-.06.04c29.34-20.94,59.14-41.21,89.39-60.8l-.04.03c15.68-10.13,31.77-19.63,48.23-28.45,23.81-12.61,36.68-18.98,60.91-30.94,13.66-6.74,29.04-14.64,42.29-22.79,7.25-4.4,14.16-9.33,20.7-14.73,6.25-5.16,11.88-11.02,16.79-17.46,18.97-24.57,21.78-56.92,7.26-84.37-4.46-8.51-10.04-16.37-16.6-23.39l-12.83-13.91c-9.06-9.78-20.04-20.52-31.18-28.55-22.51-16.38-48.02-21.49-75.03-14.68-19.57,4.44-34.96,10.48-53.59,19.47-9.78,4.72-15.28,7.13-25.28,11.47-13.93,6.04-27.62,12.61-41.05,19.7h.03s-.06.02-.09.03l.07-.03s-.04.02-.07.03c-77.08,40.36-166.2,101.22-239.34,157.49l.06-.04c-36.85,28.27-73,57.44-108.41,87.49-23.83,20.21-47.38,40.74-70.64,61.6-18.52-19.37-37.17-38.61-55.96-57.73-25.21-25.67-50.75-51.03-76.62-76.06-29.53-28.58-62.53-59.28-94.34-86.42-13.51-11.58-27.38-22.73-41.6-33.43l-16.8-12.82c-16.69-13.02-33.71-25.6-51.06-37.74l.05.03c-24.55-17.22-50.33-32.64-77.11-46.13-24.55-12.37-51.15-22.57-77.72-29.62-14.45-3.84-29.84-6.68-44.7-8.35-16.36-1.85-36.06-2.37-52.44-.83-27.11,2.53-51.57,18.41-65.3,41.81-11.93,20.14-15.42,44.17-10.87,67.04,2.2,11.07,6.66,21.79,12.88,31.2,4.47,6.82,9.71,13.33,15.46,19.11,8.77,8.83,18.68,17.08,28.9,24.18,8.49,5.97,17.21,11.6,26.15,16.88l-.04-.02c9.27,5.49,18.67,10.76,28.18,15.82,51.78,27.89,105,56.4,147.13,97.43,23.11,22.5,46.66,39.58,69.52,62.33l70.72,70.45-.02-.02c24.08,24.02,48.39,47.81,72.91,71.37,13.19,12.72,23.48,28.34,36.99,40.72-19.6,18.85-48.42,41.03-66.92,59.4l-.03.03c-101.51,100.88-200.63,204.15-297.26,309.71l-.84.92-.8.95c-48.74,58.28-97.7,116.38-146.87,174.3-13.77,16.22-27.07,31.66-41.09,47.64-6.32,7.1-12.55,14.29-18.68,21.55-.01.01-.03.03-.04.04l.04-.04-.05.06.02-.02c-7.5,8.83-14.65,17.94-21.45,27.32-8.36,11.34-15.75,23.88-21.51,36.73-4.3,9.59-7.26,19.91-8.74,30.32-2.47,16.99.26,34.32,7.83,49.73l1.22,2.48c6.1,11.01,16.16,20.03,27.67,25.06l6.35,2.64,9.55,2.38c7.64,1.58,19.67,2.57,27.85,2.78,7.43.28,14.87.43,22.31.43h-.02c11.67,0,23.33-.15,34.99-.46,11.8-.31,39.6-1.18,51.31-1.77,22.68-1.14,44.4-1.5,67.08-2.04l15.28-28.74c4.85-9.13,9.87-18.17,15.05-27.12l.03-.06c5.8-10.05,11.62-19.37,18.14-28.96,5.56-8.11,11.51-15.95,17.82-23.5l25.27-29.59c35.18-41.88,133.43-170.33,181.35-233.49,45.1-50.47,91.09-100.15,137.94-149.01,21.25-22.15,42.83-44.02,64.71-65.57h0ZM52.62,1173.69s.03-.04.05-.06l-.05.06h0ZM1199.16,83.48l-.09.05s.06-.03.09-.05h0Z"/>
  <polygon class="cls-1" points="372.76 753.96 372.74 753.96 372.76 753.96 372.76 753.96"/>
  <path class="cls-1" d="M1124.96,1029.85s.02.01.03.02l-.03-.02h0Z"/>
</svg>