<?xml version="1.0" encoding="UTF-8"?>
<svg id="Ebene_1" xmlns="http://www.w3.org/2000/svg" version="1.1" viewBox="0 0 4616.03 2564.85">
  <!-- Generator: Adobe Illustrator 29.8.3, SVG Export Plug-In . SVG Version: 2.1.1 Build 3)  -->
  <defs>
    <style>
      .st0, .st1, .st2, .st3 {
        fill-rule: evenodd;
      }

      .st0, .st4, .st5, .st3 {
        fill: #fff;
      }

      .st1, .st6, .st7, .st8, .st5, .st3 {
        stroke: #fff;
        stroke-miterlimit: 10;
        stroke-width: 30px;
      }

      .st7, .st9 {
        fill: #e6007e;
      }

      .st8, .st10 {
        fill: #ff22e0;
      }
    </style>
  </defs>
  <path class="st6" d="M2643.74,1456.14c0,33.02,32.93,49.52,65.87,49.52s66.54-16.51,66.54-49.52v-124.4l53.77,137.37c10.75,27.12,36.29,36.55,70.57,36.55,39.65,0,61.83-15.33,61.83-44.81,0-6.49-2.02-12.97-4.7-18.87l-61.83-140.9c-3.36-7.07-5.38-11.79-5.38-15.92,0-2.95.67-7.66,2.69-11.79l61.16-126.76c4.03-8.25,5.38-14.74,5.38-21.22,0-25.35-28.23-37.14-60.49-37.14-38.31,0-57.13,13.56-70.57,44.22l-52.43,116.14v-110.84c0-33.02-32.93-49.52-65.87-49.52s-66.54,16.51-66.54,49.52v318.36h0Z"/>
  <path class="st6" d="M1246.35,681.64c-.12-.08-.25-.16-.38-.25-4.41-2.9-8.77-5.86-13.09-8.89-.94-.66-1.9-1.29-2.89-1.89-3.25-1.94-6.7-3.22-10.22-3.85-3.88-2.37-7.72-4.8-11.56-7.33-4.41-2.9-8.77-5.86-13.09-8.89-.94-.66-1.9-1.29-2.89-1.89-9.15-5.47-19.97-5.7-29.21-.88-.85.44-1.67.91-2.48,1.42,0,0,.02,0,.02-.02-.7.44-1.4.9-2.08,1.36l-28.3,21.3c-1.81,1.13-3.55,2.35-5.22,3.65-2.57,2.01-4.92,4.27-7.01,6.72-4.6,5.41-7.69,11.73-9.01,18.47-.57,2.93-.82,5.9-.74,8.88.08,2.87.43,5.73,1.05,8.54,1.07,4.85,2.83,9.48,5.11,13.95,1.61,3.17,3.21,6.35,4.76,9.55,1.7,3.49,3.36,7,4.97,10.52,5.08,11.1,10.23,23.39,14.83,34.64,1.77,4.32,3.53,8.65,5.27,12.98,3.57,8.85,7.11,17.71,10.64,26.57,8.21,20.65,15.86,41.09,23.07,61.95,6.07,17.56,11.51,34.49,16.87,52.09-8.74,4.4-15.4,10.8-20.14,18.85-1.91,3.24-3.47,6.61-4.76,10.1-.54,1.45-1.04,2.92-1.5,4.39h0c-1.34,4.33-2.41,8.87-3.27,13.34-.81,4.24-1.38,8.3-1.61,12.55-.16,2.86-.13,5.61.12,8.43.16,1.82.43,3.63.81,5.42.96,4.57,2.73,8.97,5.38,12.92,4.77,7.11,12.07,12.15,20.74,14.46,4.31,1.15,8.74,1.62,13.22,1.55.19,0,.39,0,.58-.01.87,2.06,1.94,4.06,3.21,5.95,3.62,5.39,8.69,9.6,14.72,12.32,1.88,9.54,3.63,19.25,5.11,27.92,2.9,16.97,7.1,43.99,8.65,62.75.15,1.81.27,3.62.37,5.44.08,1.61.18,3.23.31,4.84.16,2.04.42,4.08.75,6.11.42,2.54.97,4.88,1.76,7.29,1.02,3.16,2.45,6.18,4.36,8.97,2.83,4.13,6.62,7.5,11.21,9.82,6.41,3.24,13.86,4.09,20.93,2.51.33-.07.65-.15.97-.23.09.29.18.59.28.88,1.02,3.16,2.45,6.18,4.36,8.97,2.83,4.13,6.62,7.5,11.21,9.82,6.41,3.24,13.86,4.09,20.93,2.51,2.35-.52,4.63-1.29,6.8-2.28,2.9-1.32,5.58-2.99,8.04-4.92,1.26-.98,2.47-2.01,3.62-3.1l13.3-10.11v240.32c0,41.27,18.15,71.34,68.55,71.34h66.54c92.75,0,191.55-14.74,191.55-112.61,0-45.99-16.13-76.05-62.51-99.05-6.72-3.54-5.38-6.49,0-10.61,24.73-19.04,40.79-43.79,43.83-72.52l11.86-2.55c.33.73.68,1.46,1.04,2.18h0c1.21,2.45,2.48,4.68,3.94,6.99.88,1.39,1.81,2.75,2.79,4.08l9.72,13.06,16.99-3.66v201.19c0,41.27,18.15,71.34,68.55,71.34h131.73c29.57,0,49.73-22.4,49.73-50.11s-20.16-49.52-49.73-49.52h-42.34c-20.16,0-25.54-8.25-25.54-22.99v-178.4l70.8-15.24c1.79,2.43,3.8,4.69,6.02,6.75,2.47,2.31,5.18,4.35,8.07,6.1.62,1.61,1.32,3.19,2.08,4.75l.78,1.59.33.58c2.45,4.39,5.58,8.37,9.27,11.8,4.02,3.76,8.65,6.8,13.68,9.02l.23.1,4.53,1.89,6.23,1.55.56.11c1.38.28,2.76.51,4.15.69,1.23.16,2.45.31,3.68.43,2.48.24,4.98.4,7.47.47,3.27.12,6.54.18,9.81.18,4.91,0,9.81-.06,14.72-.19,4.94-.14,9.89-.29,14.83-.47,2.1-.07,4.21-.16,6.32-.26,4.08-.2,8.16-.35,12.25-.46,7.37-.19,19.95-.46,28.78-.65l13.06-24.57c1.82-3.42,3.7-6.8,5.64-10.15,1.96-3.42,4.06-6.76,6.27-10.02,1.75-2.55,3.62-5.01,5.6-7.39l10.22-11.97c1.66-1.98,3.3-3.98,4.92-5.99,1.65-2.05,3.31-4.1,4.94-6.16,3.4-4.27,7.22-9.12,11.14-14.14l72.53-15.61,3.92-2.5c1.61-1.03,3.21-2.08,4.79-3.16,4.39-2.98,8.43-5.9,12.58-9.14,2.76-2.15,5.44-4.39,8.04-6.71,2.5-2.24,4.97-4.66,7.21-7.15,1.88-2.09,3.61-4.27,5.17-6.58.95-1.41,1.81-2.88,2.58-4.38,1.84-3.59,3.05-7.45,3.43-11.42.22-2.33.14-4.67-.24-6.98-.24-1.41-.48-2.82-.73-4.23-.47-2.63-.99-5.25-1.82-7.81-1.58-4.85-4.26-9.07-8.22-12.44-5.58-4.75-12.94-7.03-20.42-6.58-1.11.06-2.22.18-3.32.36,6.82-7.3,13.68-14.56,20.6-21.77,7.69-8.02,15.49-15.94,23.39-23.75,14.59,13.24,32.49,29.34,47.81,42.91,11.89,10.51,23.94,20.83,36.16,30.96,4.25,3.52,8.52,7.01,12.84,10.44l-29.94,27.54c-7.56-5.64-17.54-9.07-28.49-9.07-23.61,0-42.75,15.97-42.75,35.68,0,16.14,12.84,29.78,30.46,34.18l-.03,83.56h.05s-.02,0-.02,0l47.77,40.69-48.38,39.51.34.34-1.75,88.29c-16.58,4.91-28.45,18.11-28.45,33.63,0,19.7,19.14,35.68,42.75,35.68,10.8,0,20.67-3.34,28.19-8.86l167.41,130.08c-.06.79-.1,1.59-.1,2.4,0,19.7,19.14,35.68,42.75,35.68s42.75-15.97,42.75-35.68c0-.71-.02-1.42-.07-2.12l166.03-117.31-.15-.22h.61l.86-167.89c16.79-4.81,28.86-18.1,28.86-33.75s-11.87-28.72-28.44-33.63l.62-168.62c16.25-5.05,27.82-18.12,27.82-33.44,0-19.7-19.14-35.68-42.75-35.68-11.47,0-21.88,3.77-29.56,9.9l-120.36-84.48c-.49-19.35-19.44-34.91-42.74-34.91s-42.75,15.97-42.75,35.68c0,1.12.06,2.23.18,3.33l-25.39,23.36c-4.64-3.35-9.25-6.75-13.8-10.22l-6.2-4.72c-6.56-4.98-12.27-9.33-18.68-14.39-3-2.37-5.96-4.78-8.89-7.24-2.16-1.82-4.33-3.61-6.52-5.4-2.35-1.92-4.71-3.83-7.08-5.73-2.88-2.31-5.74-4.65-8.59-7-2.98-2.46-5.91-4.97-8.8-7.54-5.45-4.87-10.89-9.75-16.32-14.64-2.38-2.14-4.76-4.29-7.13-6.44,11.2-9.76,22.35-19.11,34-28.36,9.92-7.87,20.03-15.49,30.32-22.86,11.46-8.18,23.1-16.1,34.92-23.75,5.7-3.68,11.55-7.13,17.53-10.34,3.7-1.96,7.42-3.9,11.15-5.79,2.99-1.51,8.8-4.4,12.58-6.25,2.96-1.45,5.9-2.95,8.82-4.49,1.6-.84,3.19-1.71,4.76-2.59,1.82-1.02,3.62-2.08,5.41-3.17,3.94-2.39,7.69-5.07,11.24-8.01,3.96-3.28,7.54-6.99,10.67-11.08,2.93-3.8,5.37-7.94,7.26-12.35,4.35-10.11,5.61-21.25,3.68-32.01-1.04-5.8-2.97-11.4-5.73-16.6-2.82-5.37-6.34-10.33-10.47-14.77l-5.11-5.53c-1.81-1.96-3.67-3.87-5.58-5.72-2.71-4.91-6.01-9.47-9.83-13.58l-5.11-5.53c-2.23-2.41-4.54-4.75-6.92-7.01-1.34-1.26-2.71-2.48-4.11-3.67-1.67-1.42-3.4-2.78-5.18-4.07-10.78-7.85-23.37-12.13-36.79-11.89-2.34.04-4.68.22-7.01.53-2.35.31-4.68.76-6.98,1.33-4.49,1.02-8.92,2.33-13.25,3.9-2.28.83-4.53,1.73-6.75,2.69-2.25.98-4.47,2-6.67,3.06-3.19,1.55-6.02,2.79-9.16,4.15-6.19,2.68-12.28,5.61-18.24,8.76-3.91,2.05-7.8,4.17-11.64,6.33-4.18,2.36-8.33,4.77-12.45,7.24-8.32,4.99-16.93,10.45-25.14,15.87-8.17,5.41-16.26,10.97-24.24,16.66-8.88,6.33-17.64,12.81-26.28,19.46-15.11,11.6-29.94,23.57-44.48,35.89h0c-3.58,3.03-7.15,6.09-10.7,9.16-12.89-13.21-24.08-24.39-37.15-37.05-5.99-5.8-12.05-11.54-18.18-17.2-3.23-2.98-6.49-5.94-9.77-8.87-3.66-3.27-7.36-6.5-11.09-9.69-5.8-4.97-11.76-9.76-17.86-14.36l-6.58-5.02c-7.01-5.46-14.16-10.75-21.44-15.85-10.85-7.61-22.24-14.42-34.07-20.38-5.45-2.75-11.04-5.23-16.74-7.43-6.32-2.45-12.76-4.56-19.32-6.31l-.08-.02c-7.07-1.86-14.27-3.21-21.54-4.02-4.06-.45-8.13-.73-12.21-.82-4.57-.1-9.39,0-14,.43-8.93.83-17.56,3.73-25.21,8.39-8.39,5.11-15.38,12.21-20.36,20.68-3,5.09-5.25,10.57-6.69,16.28-1.61-1.14-3.23-2.27-4.88-3.37-4.7-3.11-10.07-4.81-15.68-5.4-.7-.57-1.4-1.13-2.1-1.69-4.41-3.53-9.16-7.2-13.8-10.56-2.02-1.47-4.08-2.9-6.17-4.3-5.57-3.68-12.07-5.39-18.82-5.62h.03c-1.38-.05-2.76-.04-4.14.02-3.89.18-7.87.74-11.68,1.51-2.91.59-5.8,1.26-8.67,2.02-2.82.74-5.61,1.54-8.39,2.39-4.21,1.28-9.14,2.87-13.51,4.34-4.68,1.58-9.34,3.19-14,4.81-3.88,1.36-7.84,3.03-11.54,4.75-3.05,1.42-6.07,2.91-9.04,4.47-2.35,1.23-4.69,2.48-7.01,3.77-6.42,3.56-12.73,7.3-18.92,11.2l-11.7,7.38.72,13.11c.19,3.42.35,6.84.48,10.26.75,18.95,1.03,37.92.86,56.88-.1,11.68-.41,23.35-.92,35.02-.33,7.46-.76,14.92-1.31,22.37-.59,8.17-1.35,16.34-2.27,24.48-.46,4.03-.97,8.05-1.53,12.07-.62,4.43-1.32,8.84-2.09,13.25-.71,4.04-1.5,8.06-2.39,12.07-2.57.22-7.35.63-10.08.85-7.86.64-16.15,1.34-23.99,2.26-2.1.25-4.19.52-6.28.82-4.83.68-9.56,1.52-14.29,2.62-4.36,1.01-8.75,2.31-12.91,3.94-6.33,2.49-12.18,5.81-17.09,10.31-.94.87-1.83,1.78-2.66,2.75-.44.51-.87,1.03-1.28,1.56-2.83,3.63-5.88,8.6-8.15,12.55-2.08,3.61-4.04,7.29-5.9,11.01-1.57,3.14-3.02,6.32-4.37,9.54-.85,2.04-1.63,4.11-2.34,6.21-.45,1.36-.86,2.73-1.23,4.11-1.56,5.98-1.94,11.91-.14,17.9,1.02,3.39,2.72,6.56,5.03,9.35,3.48,4.17,8.08,7.23,13.46,8.98l-7.85,4.73c-2.35,1.41-4.68,2.83-7,4.26-9.04,5.65-18.12,11.25-27.23,16.8l-33.31-159.03,21.26-5.39c6.87-1.76,14.18-4.77,20.5-7.85,2.87-1.4,5.7-2.88,8.48-4.43,11.17-6.23,22.45-14.01,31.77-22.65,1.38-1.28,2.72-2.59,4.03-3.93,1.55-1.59,3.05-3.24,4.48-4.93,3.96-4.71,6.36-10.28,7.36-16.15.59-3.49.74-7.01.52-10.54-.15-2.46-.45-4.91-.9-7.34-.86-4.76-2.12-9.29-3.72-13.88-.59-1.71-1.24-3.41-1.94-5.09l-7.75-18.54-20.98,4.16c-1.88.37-3.78.74-5.67,1.08-.08.02-.16.03-.23.04-.37-1.2-.77-2.4-1.18-3.6-.59-1.71-1.24-3.41-1.94-5.09l-7.75-18.54-20.98,4.16c-1.88.37-3.78.74-5.67,1.08-18.67,3.41-38.63,6.32-57.46,8.51-11.32,1.32-22.67,2.4-34.04,3.25-7.47.56-14.95.99-22.44,1.31-8.17.35-16.36.51-24.54.49-5.53-.01-11.07-.08-16.6-.21-6.18-.14-12.36-.38-18.54-.7-6.19-.33-12.36-.76-18.53-1.32-6.87-.62-13.72-1.4-20.55-2.35-5.95-.83-11.89-1.78-17.79-2.86-3.14-.57-6.27-1.17-9.4-1.8-13.84-2.79-28.11-6.21-41.89-9.52l-11.05-2.65c-2.59-.62-5.17-1.25-7.75-1.9-8.55-2.15-17.03-4.54-25.28-7.56-2.55-.94-5.07-1.93-7.57-2.98-2.82-1.18-5.6-2.42-8.37-3.71-2.86-1.34-5.71-2.72-8.53-4.13-2.4-1.2-4.8-2.41-7.19-3.64h0l-.04.02ZM1393.06,1098.81c-.45-2.05-.91-4.09-1.38-6.14-1.41-6.07-2.87-12.12-4.4-18.16-1.88-7.45-3.82-14.89-5.83-22.32-.98-3.64-1.98-7.27-2.98-10.91l75.64-16.59,1.59-.57c2.23-.8,4.39-1.76,6.45-2.87,2.73-1.47,5.27-3.25,7.54-5.28.59-.53,1.17-1.08,1.72-1.64,1.73,8.91,3.33,17.85,4.79,26.8,1.41,8.71,2.71,17.44,3.88,26.18,1.28,9.58,2.45,19.18,3.5,28.79.02.23.05.46.08.69h-69.83c-7.64,0-14.54.69-20.75,2.01h0ZM1451.15,926.27c-1.37-.09-2.74-.1-4.11-.04-.93.04-1.86.11-2.79.21-.72.08-1.45.17-2.16.27-.12.02-.23.03-.35.05-.21-.8-.45-1.59-.72-2.38-1.6-4.6-4.3-8.72-8.01-12.07-4.54-4.1-10.36-6.74-16.61-7.66-2.35-.35-4.72-.47-7.1-.37-.93.04-1.86.11-2.79.21-.72.08-1.45.17-2.16.27-5.62.8-11.24,1.56-16.87,2.3-10.2,1.34-17.44,2.21-28.35,3.53-8.39,1.02-15.88,1.98-23.96,3.14-10.81-28.22-24-58.92-35.5-84.77,1.17.47,2.35.94,3.53,1.4,19.69,7.7,39.9,13.53,60.84,17.5,7.8,1.48,15.64,2.7,23.53,3.68,12.77,1.57,25.58,2.9,38.41,4,.86.07,1.73.14,2.59.22.74,1.92,1.46,3.84,2.19,5.76,1.2,3.2,2.38,6.41,3.53,9.62,6.47,18.09,12,36.58,16.87,55.13h0ZM1876.45,1059.44c.09-.28.18-.55.27-.83,5.25-16.1,9.8-32.33,13.59-48.77.92-4,1.8-8,2.63-12.02l124.33-13.22c-4.53,4.89-9.04,9.8-13.54,14.71-.37.4-.73.8-1.08,1.22-12.65,15.13-25.34,30.22-38.06,45.29l-88.14,13.62h0ZM2111.41,886.58l-.93.04c-.21-.9-.46-1.8-.76-2.69-1.05-3.17-2.69-6.13-4.84-8.77-3.01-3.69-6.99-6.61-11.56-8.48-3.53-1.45-7.32-2.24-11.17-2.4-1.96-.08-3.92,0-5.86.22l-167.91,7.77c1.66-19.81,2.78-39.94,3.28-59.71l24.55,23.43,10.21-4.33,27.54,26.28,100.18-42.5c4.83,4.49,9.46,8.37,14.58,12.76,3.39,2.9,6.92,6.02,10.09,9.18l28.39,28.28c.92.92,1.84,1.83,2.76,2.75-2.03,1.82-4.05,3.69-5.97,5.6-4.21,4.18-8.4,8.37-12.58,12.56h0ZM1500.27,1191.81c18.26,1.24,24.44,16.5,24.44,31.76,0,12.97-6.72,30.07-26.88,30.07s-26.88-17.1-26.88-30.07c0-14.39,5.49-28.78,21.43-31.41l.38,4.45,7.52-4.8h0ZM1528.74,1374.49c0,17.1-7.39,38.32-28.9,38.32-23.52,0-28.9-24.76-28.9-38.32,0-17.69,10.08-33.6,28.9-33.6s28.9,15.92,28.9,33.6h0ZM2361.46,1092.2c4.57,3.45,9.18,6.85,13.82,10.21,5.1,3.58,10.19,7.17,15.27,10.78l2.05,1.45c.95.67,1.91,1.33,2.88,1.98,2.06,1.38,3.73,2.33,5.99,3.56-5.81,4.95,35.74,25,30.54,30.57,0,0,5.88-3.7,15.29-9.63l22.25,15.35,18.29-10.45c1.39-.95,14.15,11.56,15.68,10.82,1.71-.82,7.15,10.23,8.96,9.7.46-.13,1.31-.51,2.36-1l-1.34,116.21h-169.14l-46.12-38.36-.14-75.81c17.84-4.29,30.89-18.01,30.89-34.28,0-3.29-.53-6.47-1.53-9.49l34.01-31.61h0ZM2538.64,1193.07c6.59,3.19,11.8,4.21,16.25,5,13.08,2.32,19.83,1.9,28.38,1.48,6.8-.34,12.26-2.36,15.58-4.31,2.57-1.51,5.05-3.18,7.42-5,8.47-6.5,15.15-14.75,19.75-24.39,1.41-2.95,2.62-5.98,3.62-9.09,1.04-3.21,1.87-6.49,2.5-9.8.59-3.1,1.02-6.22,1.3-9.36.29-3.23.42-6.48.42-9.72,0-7.35-.82-14.57-2.7-21.68-.78-2.94-1.73-5.82-2.87-8.64-2.22-5.52-5.14-10.72-8.69-15.5-1.86-2.5-3.89-4.87-6.07-7.1-2.06-2.1-4.24-4.08-6.54-5.93l-9.64-8.91c-.9-.87-1.83-1.72-2.79-2.53-.98-.84-1.97-1.65-2.99-2.44-1.85-1.44-3.74-2.82-5.68-4.15-3.4-2.43-6.8-4.86-10.22-7.27-3.98-2.81-8-5.56-12.07-8.25-2-1.32-4.03-2.62-6.07-3.88-2.31-1.44-4.65-2.84-7.01-4.19-2.48-1.42-5-2.78-7.55-4.07-.79-.4-1.58-.79-2.37-1.18l.48-41.84c9.5-2.56,17.56-7.82,22.85-14.69l115.09,81.91c-.76,2.67-1.17,5.45-1.17,8.31,0,17.06,14.36,31.33,33.54,34.84l-.61,166.11c-15.1,2.96-27.11,12.6-31.32,24.98h-141.87l1.02-88.7h0ZM2516.62,1010.68c-3.42-1.94-6.78-3.97-10.07-6.05-4.73-2.98-9.91-6.42-14.68-9.66-2.46-1.67-4.92-3.35-7.38-5.02-2.5-1.71-5-3.41-7.51-5.11l17.52-16.29c5.64,5.9,13.47,10.28,22.46,12.27l-.35,29.85h0ZM2710.38,1326.16l-.78,155.41-150.85,109.9c-5.25-5.86-12.6-10.33-21.13-12.62v-276.95h142.09c4.35,11.96,16.03,21.26,30.67,24.26h0ZM2490.4,1591.27l-163.06-127.95c1.06-3.11,1.63-6.4,1.63-9.8,0-16.87-14.04-31.01-32.9-34.72l1.56-78.87,45.41-38.02h170.44v276.43c-9.33,2.07-17.41,6.7-23.08,12.94h0Z"/>
  <path class="st3" d="M2207.88,947.13h0s0,0,0,0c5.15-5.07,10.08-9.82,15.07-14.44.28.24.55.49.82.73,20.04,18.33,43.83,39.79,64.15,57.8,11.36,10.07,23.85,20.75,35.54,30.43l-.02-.02c13.64,11.33,27.65,22.19,42.02,32.58,29.64,20.8,12.99,9.83,37.03,23.66,10.52,6.05,30.36,16.3,36.33,19.31-57.29,37.15-104.05,107.21-104.05,179.92,0,106.12,54.28,208.71,183.32,208.71,48.39,0,128.77-47.53,86.7-56.6-64.81-13.97-57.58-32.21-87.42-47.34-50.35-25.53-59.77-65.27-59.77-104.77s15.46-96.1,71.91-96.1c38.98,0,75.28-8.25,75.28-56.01,0-15.36-4.93-26.21-13.46-34.07l.75-.69-3.21-1.41c-7.08-5.65-16.22-9.62-26.82-12.6-2.13-.96-4.25-1.87-5.52-2.74-13.83-9.85-20.53-17.34-36.31-23.73l-5.43-7.6c-21.65-8.78-34.46-21.49-56.24-36.2l-20.69-12.88c-10.23-6.93-.71-1.49-10.54-8.98l-3.9-4.29c-10.97-8.37-23.42-17.26-33.96-26.16-10.64-8.97-22.41-18.83-32.79-28.11-12.91-11.53-22.7-16.87-35.52-28.5-9.58-8.69-16.37-15.04-25.37-23.81-2.64-2.57,0-6.54-2.45-9.01.48-.43.96-.86,1.42-1.29,19.21-17.5,37.27-33.17,57.16-48.99h-.01c10.26-8.13,20.71-16.01,31.36-23.63l-.02.02c11.78-8.41,23.75-16.55,35.9-24.42h-.02c6.3-4.06,12.76-7.87,19.37-11.42,9.56-5.07,14.73-7.62,24.47-12.43,5.49-2.71,11.66-5.88,16.99-9.15,2.91-1.77,5.69-3.75,8.31-5.92,2.51-2.07,4.77-4.43,6.74-7.01,7.62-9.87,8.75-22.86,2.92-33.89-1.79-3.42-4.03-6.58-6.67-9.39l-5.15-5.59c-3.64-3.93-8.05-8.24-12.52-11.47-9.04-6.58-19.29-8.63-30.14-5.9-7.86,1.78-14.04,4.21-21.53,7.82-3.93,1.9-6.14,2.86-10.15,4.61-5.6,2.43-11.09,5.07-16.48,7.91h.01s-.02,0-.04.01h.03s-.02,0-.03,0c-30.96,16.21-66.76,40.66-96.13,63.26l.02-.02c-14.8,11.36-29.32,23.07-43.54,35.14-9.57,8.12-19.03,16.36-28.37,24.74-7.44-7.78-14.93-15.51-22.48-23.19-10.13-10.31-20.38-20.5-30.78-30.55-11.86-11.48-25.12-23.81-37.89-34.71-5.43-4.65-11-9.13-16.71-13.43l-6.75-5.15c-6.7-5.23-13.54-10.28-20.51-15.16h.02c-9.86-6.9-20.22-13.1-30.97-18.52-9.86-4.97-20.55-9.07-31.22-11.9-5.8-1.54-11.99-2.68-17.95-3.35-6.57-.74-14.48-.95-21.06-.33-10.89,1.02-20.71,7.39-26.23,16.79-4.79,8.09-6.19,17.74-4.37,26.93.88,4.45,2.68,8.75,5.17,12.53,1.8,2.74,3.9,5.35,6.21,7.68,3.52,3.54,7.5,6.86,11.61,9.71,3.41,2.4,6.91,4.66,10.5,6.78h-.02c3.72,2.2,7.5,4.31,11.32,6.35,20.8,11.2,42.17,22.65,59.1,39.13,9.28,9.04,18.74,15.9,27.92,25.04l28.41,28.3h0c9.67,9.64,19.44,19.2,29.29,28.66,5.3,5.11,9.43,11.38,14.86,16.36-7.87,7.57-19.45,16.48-26.88,23.86h-.01c-40.77,40.53-80.59,82.01-119.4,124.41l-.34.37-.32.38c-19.58,23.41-39.24,46.75-58.99,70.01-5.53,6.52-10.87,12.72-16.5,19.14-2.54,2.85-5.04,5.74-7.5,8.66l-.02.02.02-.02s-.02.02-.02.02h0c-3.01,3.54-5.88,7.2-8.62,10.97-3.36,4.55-6.33,9.59-8.64,14.75-1.73,3.85-2.92,8-3.51,12.18-.99,6.82.1,13.79,3.15,19.97l.49,1c2.45,4.42,6.49,8.05,11.11,10.07l2.55,1.06,3.84.96c3.07.63,7.9,1.03,11.19,1.12,2.98.11,5.97.17,8.96.17h0c4.69,0,9.37-.06,14.05-.18,4.74-.12,15.91-.47,20.61-.71,9.11-.46,17.83-.6,26.94-.82l6.14-11.54c1.95-3.67,3.96-7.3,6.05-10.89v-.02c2.34-4.04,4.68-7.78,7.3-11.63,2.23-3.26,4.62-6.41,7.16-9.44l10.15-11.89c14.13-16.82,53.59-68.42,72.84-93.78,18.12-20.27,36.59-40.23,55.41-59.85,8.54-8.9,17.2-17.68,25.99-26.34h0ZM1934.76,1111.98s.01-.02.02-.02l-.02.02h0ZM2395.28,674.08l-.04.02s.02-.01.04-.02h0Z"/>
  <polygon class="st3" points="2063.34 943.39 2063.34 943.39 2063.34 943.39 2063.34 943.39"/>
  <path class="st3" d="M2365.48,1054.21s0,0,.01,0h-.01Z"/>
  <path class="st5" d="M2546.44,1199.07c38.98,0,75.28-8.38,75.28-56.87,0-43.7-38.31-57.47-86.7-57.47-129.04,0-194.91,104.16-194.91,211.9s65.87,211.9,194.91,211.9c48.39,0,86.7-13.77,86.7-57.47,0-48.49-36.29-56.87-75.28-56.87-56.46,0-71.91-57.47-71.91-97.57s15.46-97.57,71.91-97.57h0Z"/>
  <path class="st3" d="M1570.48,1063.83l.1.47c-4.14,2.1-3.85,1.8-.1-.47h0ZM1448.21,811.79c.55-.08,1.27-.1,2.21-.06,1.87.08.96.12-2.21.06h0ZM1448.21,811.79c-4.39.65,2.44,5.03-1.37,10.67-4.97,7.35,11.44,25.51,32.09,109.05,20.65,83.53,27.28,123.64,35.59,221.05l237.53-151.69s-6.81,27.46-20.08,48.81c-12.21,19.64-19.29,33.31-38.06,56.1-17.52,21.27-49.78,46.88-49.78,46.88,0,0,1.61,14.8,5.82,25.04,2.52,6.13,5.96,10.62,5.96,10.62l486.99-104.8s34.8-21.9,32.94-32.76c-2.01-11.74-1.93-12.17-7.77-10.71-8.87,2.22-40.85,6-40.85,6l-96.26,11.29-244.57,37.79s12.51-21.83,21.71-47.13c14.93-41.05,21.84-73.09,25.66-95.21l229.05-24.35c3.05-.4,3.7-.65,6.49-2.47,6.31-4.12,28.18-43.12,9.53-40.09l-238.77,11.05s13.57-88.68,7.56-180.92l94.38,90.06,75-31.82s-95.6-92.8-133.92-118.36c-6.72-4.48-29.82,3.3-55.68,12.32-16.2,5.65-41.25,21.65-41.25,21.65,0,0,7.99,136.54-13.95,208.98-35.52,4.34-73.72,3.49-87.33,16.02-3.94,3.62-18.83,29.81-19.71,39.75-.53,6.07,3.71,6.9,10.76,4.93,15.38-4.28,46.03-2.3,67.98-2.61-17.54,13.46-76.32,48.15-85.1,53.64-42,26.25-78.08,47.08-88.32,53.27l-53.13-253.64s13.91-3.51,43.7-11.06c14.79-3.75,42.39-19.4,56.13-35.64,7.11-8.41-2.29-30.23-2.29-30.23,0,0-76.06,15.36-149.47,15.15-73.41-.21-105.71-9.05-160.57-22.16-31.48-7.52-44.57-12.62-72.91-27.3-18.48-9.57-34.8-19.71-51.96-31.74-2.68-1.88-3.29-1.88-6.07-.04l-28.76,21.65c-6.26,3.7-17.58,12.36-7.92,31.35,11.11,21.84,18.39,38.49,41.34,96.18,24.16,60.73,36.84,103.15,47.01,137.3-20.41,4.12-29.94,6.29-35.58,35.56-4.95,25.72,4.54,29.72,19.76,27.35,16.02-2.5,13.77-2.41,27.32-3.94,8.05,22.51,22.98,109.25,24.58,141.15.37,7.45,1.39,27.15,15.55,13.14l49.61-37.69c14.52-10.31,8.1-28.29,6.18-38.64-4.88-26.38-19.75-79.81-23.28-90.3l99.28-21.78c7.92-2.87,11.6-8.78,10.64-23.46l-1.96-22.92c-.71-7.4-6.53-6.62-9.41-6.22-51,7.2-55.76,5.88-118.87,17.12-11.05-38.59-39.49-106.78-78.92-190.75,44.84,27.13,87.52,45.44,142.74,52.27,44.6,5.52,83.81,7,94.97,7.21h0v.02ZM2067.82,955.13h-.01.01Z"/>
  <path class="st6" d="M2275.41,1302.1c0-99.64-39.65-208.71-172.06-208.71s-172.06,109.07-172.06,208.71,39.65,208.71,172.06,208.71,172.06-109.07,172.06-208.71h0ZM2063.7,1302.1c0-50.7,4.7-101.99,39.65-101.99s39.65,51.29,39.65,101.99-4.7,101.99-39.65,101.99-39.65-51.29-39.65-101.99h0Z"/>
  <path class="st8" d="M2441.66,1106.73c-68.43,35.95-103.16,112.29-103.16,190.53,0,107.75,65.87,211.9,194.91,211.9,48.39,0,86.7-13.77,86.7-57.47,0-48.49-36.29-56.87-75.28-56.87-56.46,0-71.91-57.47-71.91-97.57s15.46-97.57,71.91-97.57c38.98,0,75.28-8.38,75.28-56.87,0-21.14-8.97-35.28-23.71-44.24-28.15-20.89-56.31-40.15-79.16-55.31-24.85-16.48-39.9-26.39-61.68-41.1l.02.02c-10.23-6.93-20.26-14.14-30.09-21.63h.01c-10.97-8.36-24.2-18.22-34.74-27.12-10.64-8.97-21.16-16.87-31.54-26.15-12.91-11.53-21.58-19.37-34.4-31-9.58-8.69-16.45-15.18-25.45-23.95-2.64-2.57-5.16-5.06-7.62-7.53.48-.43.96-.86,1.42-1.29,19.21-17.5,37.27-33.17,57.16-48.99h-.01c10.26-8.13,20.71-16.01,31.36-23.63l-.02.02c11.78-8.41,23.75-16.55,35.9-24.42h-.02c6.3-4.06,12.76-7.87,19.37-11.42,9.56-5.07,14.73-7.62,24.47-12.43,5.49-2.71,11.66-5.88,16.99-9.15,2.91-1.77,5.69-3.75,8.31-5.92,2.51-2.07,4.77-4.43,6.74-7.01,7.62-9.87,8.75-22.86,2.92-33.89-1.79-3.42-4.03-6.58-6.67-9.39l-5.15-5.59c-3.64-3.93-8.05-8.24-12.52-11.47-9.04-6.58-19.29-8.63-30.14-5.9-7.86,1.78-14.04,4.21-21.53,7.82-3.93,1.9-6.14,2.86-10.15,4.61-5.6,2.43-11.09,5.07-16.49,7.91h.01s-.02,0-.04.01h.03s-.02,0-.03,0c-30.96,16.21-66.76,40.66-96.13,63.26l.02-.02c-14.8,11.36-29.32,23.07-43.54,35.14-9.57,8.12-19.03,16.36-28.37,24.74-7.44-7.78-14.93-15.51-22.48-23.19-10.13-10.31-20.38-20.5-30.78-30.55-11.86-11.48-25.12-23.81-37.89-34.71-5.43-4.65-11-9.13-16.71-13.43l-6.75-5.15c-6.7-5.23-13.54-10.28-20.51-15.16h.02c-9.86-6.9-20.22-13.1-30.97-18.52-9.86-4.97-20.55-9.07-31.22-11.9-5.8-1.54-11.99-2.68-17.95-3.35-6.57-.74-14.48-.95-21.06-.33-10.89,1.02-20.71,7.39-26.23,16.79-4.79,8.09-6.19,17.74-4.37,26.93.88,4.45,2.68,8.75,5.17,12.53,1.8,2.74,3.9,5.35,6.21,7.68,3.52,3.54,7.5,6.86,11.61,9.71,3.41,2.4,6.91,4.66,10.5,6.78h-.02c3.72,2.2,7.5,4.31,11.32,6.35,20.8,11.2,42.17,22.65,59.1,39.13,9.28,9.04,18.74,15.9,27.92,25.04l28.41,28.3h0c9.67,9.64,19.44,19.2,29.29,28.66,5.3,5.11,9.43,11.38,14.86,16.36-7.87,7.57-19.45,16.48-26.88,23.86h-.01c-40.77,40.53-80.59,82.01-119.4,124.41l-.34.37-.32.38c-19.58,23.41-39.24,46.75-58.99,70.01-5.53,6.52-10.87,12.72-16.5,19.14-2.54,2.85-5.04,5.74-7.5,8.66l-.02.02.02-.02s-.02.02-.02.02h0c-3.01,3.54-5.88,7.2-8.62,10.97-3.36,4.55-6.33,9.59-8.64,14.75-1.73,3.85-2.92,8-3.51,12.18-.99,6.82.1,13.79,3.15,19.97l.49,1c2.45,4.42,6.49,8.05,11.11,10.07l2.55,1.06,3.84.96c3.07.63,7.9,1.03,11.19,1.12,2.98.11,5.97.17,8.96.17h0c4.69,0,9.37-.06,14.05-.18,4.74-.12,15.91-.47,20.61-.71,9.11-.46,17.83-.6,26.94-.82l6.14-11.54c1.95-3.67,3.96-7.3,6.05-10.89v-.02c2.34-4.04,4.68-7.78,7.3-11.63,2.23-3.26,4.62-6.41,7.16-9.44l10.15-11.89c14.13-16.82,53.59-68.42,72.84-93.78,18.12-20.27,36.59-40.23,55.41-59.85,8.54-8.9,17.2-17.68,25.99-26.34h0s0,0,0,0c5.15-5.07,10.08-9.82,15.07-14.44.28.24.55.49.82.73,20.04,18.33,43.83,39.79,64.15,57.8,11.36,10.07,23.85,20.75,35.54,30.43l-.02-.02c13.64,11.33,27.65,21.59,42.02,31.97,29.64,20.8,15.44,11.13,36.43,25.48,9.54,6.52,18.09,12.85,41.36,27.03h0ZM1933.15,1112.6s.01-.02.02-.02l-.02.02h0ZM2393.68,674.7l-.04.02s.02-.01.04-.02h0Z"/>
  <polygon class="st7" points="2061.74 944.01 2061.73 944.01 2061.74 944.01 2061.74 944.01"/>
  <path class="st7" d="M2363.88,1054.22s0,0,.01,0h-.01Z"/>
  <path class="st1" d="M2546.35,1211.93c9.15.08,18.3-.5,27.37-1.76h.04c4.98-.71,10.17-1.86,15-3.27,5.84-1.7,11.44-4.11,16.7-7.19,15.23-8.87,24.35-23.61,27.44-40.57,1.02-5.58,1.52-11.25,1.49-16.94.02-4.77-.41-9.53-1.27-14.22-3.22-18.27-14.19-32.74-29.65-41.66h0c-5.01-2.9-10.3-5.28-15.78-7.11h.02c-5.68-1.9-11.48-3.39-17.37-4.44h.02c-5.64-1.01-11.33-1.74-17.04-2.18-6.09-.47-12.2-.7-18.31-.69-11.58-.02-23.14.82-34.6,2.51-12.97,1.91-25.73,5.07-38.12,9.44-56,19.71-96.65,63.66-117.72,118.48-5.5,14.28-9.68,29.06-12.5,44.14-3.1,16.54-4.65,33.34-4.64,50.18-.06,26.45,3.84,52.98,11.56,78.24,4.06,13.3,9.4,26.39,15.75,38.74,7.09,13.82,15.68,26.8,25.59,38.7h0c18.18,21.84,41.09,39.38,66.83,51.04,13.18,5.97,27.23,10.52,41.38,13.43,15.26,3.13,30.9,4.68,46.47,4.64,14.76.08,30.47-1.26,44.95-4.99,17.42-4.44,34.15-13.3,44.36-28.85,3.43-5.23,6.08-11.2,7.67-17.28,1.64-6.24,2.45-12.78,2.4-19.24.01-4.19-.25-8.38-.79-12.54v.03c-.63-4.98-1.77-9.88-3.41-14.62-5.59-16.47-17.99-28.59-34.19-35.01-5.3-2.1-10.78-3.7-16.38-4.78h.03c-5.32-1.03-10.69-1.76-16.09-2.16h0c-5.71-.43-11.44-.64-17.16-.62-7.74.02-15.09-1.25-22.1-4.32-3.56-1.57-6.9-3.59-9.96-6.02-3.49-2.79-6.6-6.03-9.28-9.63-5.96-8.02-10.34-18-13.03-27.84-5.89-21.87-6.37-45.35-1.57-67.49,2.33-10.68,5.87-20.48,11.5-29.62,2.21-3.56,4.78-6.88,7.67-9.88,3.06-3.17,6.54-5.9,10.33-8.1,3.74-2.15,7.76-3.76,11.93-4.81,4.74-1.17,9.6-1.75,14.47-1.72h0ZM2461.86,1296.65c-.01,18.22,2.84,37.2,9.19,54.42v-.02c6.93,18.95,18.8,36,36.38,46.15,5.72,3.3,12.03,5.84,18.43,7.43,6.7,1.66,13.78,2.51,20.68,2.45,8.03-.06,15.77.42,23.73,1.52,3.94.57,7.66,1.39,11.48,2.51,3.94,1.15,7.53,2.7,11.08,4.77,5.26,3.07,9.44,7.62,12.07,13.17,3.16,6.81,4.17,14.52,4.16,22.02,0,6.81-1.02,13-3.93,18.94-1.41,2.85-3.24,5.46-5.42,7.76-8.67,9.01-21.94,13.32-33.75,15.44-10.22,1.83-20.57,2.48-30.93,2.48-22.42,0-43.56-3.19-64.41-10.53-23.08-8.13-44.01-21.4-61.32-38.9h0c-8.54-8.63-16.16-18.15-22.75-28.4-23.06-35.86-33.73-78.65-33.77-121.22-.02-24.06,3.41-47.6,10.42-70.59,15.18-49.5,47.11-91.18,94.28-112.61,11.57-5.23,23.67-9.15,36.08-11.7,13.99-2.86,27.21-4.11,41.48-4.12,8.91,0,16.88.45,25.72,1.64,9.35,1.29,17.91,3.39,26.3,7.35,3.17,1.5,6.17,3.35,8.94,5.53,2.81,2.21,5.26,4.87,7.25,7.87,1.92,2.96,3.37,6.21,4.27,9.63,1.1,4.21,1.55,8.19,1.54,12.55-.03,12.67-2.66,25.37-13.35,33.31-2.76,2.02-5.75,3.68-8.92,4.93-3.88,1.54-7.81,2.68-11.9,3.47-8.9,1.73-19.06,2.35-28.39,2.33-5.11-.02-10.21.42-15.25,1.3-26.41,4.62-45.39,22.04-56.41,45.69-2.93,6.28-5.41,13-7.23,19.7-3.85,14.15-5.78,29.07-5.74,43.76h0Z"/>
  <path d="M2644.82,1456.14c0,33.02,32.93,49.52,65.87,49.52s66.54-16.51,66.54-49.52v-124.4l53.77,137.37c10.75,27.12,36.29,36.55,70.57,36.55,39.65,0,61.83-15.33,61.83-44.81,0-6.49-2.02-12.97-4.7-18.87l-61.83-140.9c-3.36-7.07-5.38-11.79-5.38-15.92,0-2.95.67-7.66,2.69-11.79l61.16-126.76c4.03-8.25,5.38-14.74,5.38-21.22,0-25.35-28.23-37.14-60.49-37.14-38.31,0-57.13,13.56-70.57,44.22l-52.43,116.14v-110.84c0-33.02-32.93-49.52-65.87-49.52s-66.54,16.51-66.54,49.52v318.36h0Z"/>
  <path d="M1247.43,681.64c-.12-.08-.25-.16-.38-.25-4.41-2.9-8.77-5.86-13.09-8.89-.94-.66-1.9-1.29-2.89-1.89-3.25-1.94-6.7-3.22-10.22-3.85-3.88-2.37-7.72-4.8-11.56-7.33-4.41-2.9-8.77-5.86-13.09-8.89-.94-.66-1.9-1.29-2.89-1.89-9.15-5.47-19.97-5.7-29.21-.88-.85.44-1.67.91-2.48,1.42,0,0,.02,0,.02-.02-.7.44-1.4.9-2.08,1.36l-28.3,21.3c-1.81,1.13-3.55,2.35-5.22,3.65-2.57,2.01-4.92,4.27-7.01,6.72-4.6,5.41-7.69,11.73-9.01,18.47-.57,2.93-.82,5.9-.74,8.88.08,2.87.43,5.73,1.05,8.54,1.07,4.85,2.83,9.48,5.11,13.95,1.61,3.17,3.21,6.35,4.76,9.55,1.7,3.49,3.36,7,4.97,10.52,5.08,11.1,10.23,23.39,14.83,34.64,1.77,4.32,3.53,8.65,5.27,12.98,3.57,8.85,7.11,17.71,10.64,26.57,8.21,20.65,15.86,41.09,23.07,61.95,6.07,17.56,11.51,34.49,16.87,52.09-8.74,4.4-15.4,10.8-20.14,18.85-1.91,3.24-3.47,6.61-4.76,10.1-.54,1.45-1.04,2.92-1.5,4.39h0c-1.34,4.33-2.41,8.87-3.27,13.34-.81,4.24-1.38,8.3-1.61,12.55-.16,2.86-.13,5.61.12,8.43.16,1.82.43,3.63.81,5.42.96,4.57,2.73,8.97,5.38,12.92,4.77,7.11,12.07,12.15,20.74,14.46,4.31,1.15,8.74,1.62,13.22,1.55.19,0,.39,0,.58-.01.87,2.06,1.94,4.06,3.21,5.95,3.62,5.39,8.69,9.6,14.72,12.32,1.88,9.54,3.63,19.25,5.11,27.92,2.9,16.97,7.1,43.99,8.65,62.75.15,1.81.27,3.62.37,5.44.08,1.61.18,3.23.31,4.84.16,2.04.42,4.08.75,6.11.42,2.54.97,4.88,1.76,7.29,1.02,3.16,2.45,6.18,4.36,8.97,2.83,4.13,6.62,7.5,11.21,9.82,6.41,3.24,13.86,4.09,20.93,2.51.33-.07.65-.15.97-.23.09.29.18.59.28.88,1.02,3.16,2.45,6.18,4.36,8.97,2.83,4.13,6.62,7.5,11.21,9.82,6.41,3.24,13.86,4.09,20.93,2.51,2.35-.52,4.63-1.29,6.8-2.28,2.9-1.32,5.58-2.99,8.04-4.92,1.26-.98,2.47-2.01,3.62-3.1l13.3-10.11v240.32c0,41.27,18.15,71.34,68.55,71.34h66.54c92.75,0,191.55-14.74,191.55-112.61,0-45.99-16.13-76.05-62.51-99.05-6.72-3.54-5.38-6.49,0-10.61,24.73-19.04,40.79-43.79,43.83-72.52l11.86-2.55c.33.73.68,1.46,1.04,2.18h0c1.21,2.45,2.48,4.68,3.94,6.99.88,1.39,1.81,2.75,2.79,4.08l9.72,13.06,16.99-3.66v201.19c0,41.27,18.15,71.34,68.55,71.34h131.73c29.57,0,49.73-22.4,49.73-50.11s-20.16-49.52-49.73-49.52h-42.34c-20.16,0-25.54-8.25-25.54-22.99v-178.4l70.8-15.24c1.79,2.43,3.8,4.69,6.02,6.75,2.47,2.31,5.18,4.35,8.07,6.1.62,1.61,1.32,3.19,2.08,4.75l.78,1.59.33.58c2.45,4.39,5.58,8.37,9.27,11.8,4.02,3.76,8.65,6.8,13.68,9.02l.23.1,4.53,1.89,6.23,1.55.56.11c1.38.28,2.76.51,4.15.69,1.23.16,2.45.31,3.68.43,2.48.24,4.98.4,7.47.47,3.27.12,6.54.18,9.81.18,4.91,0,9.81-.06,14.72-.19,4.94-.14,9.89-.29,14.83-.47,2.1-.07,4.21-.16,6.32-.26,4.08-.2,8.16-.35,12.25-.46,7.37-.19,19.95-.46,28.78-.65l13.06-24.57c1.82-3.42,3.7-6.8,5.64-10.15,1.96-3.42,4.06-6.76,6.27-10.02,1.75-2.55,3.62-5.01,5.6-7.39l10.22-11.97c1.66-1.98,3.3-3.98,4.92-5.99,1.65-2.05,3.31-4.1,4.94-6.16,3.4-4.27,7.22-9.12,11.14-14.14l72.53-15.61,3.92-2.5c1.61-1.03,3.21-2.08,4.79-3.16,4.39-2.98,8.43-5.9,12.58-9.14,2.76-2.15,5.44-4.39,8.04-6.71,2.5-2.24,4.97-4.66,7.21-7.15,1.88-2.09,3.61-4.27,5.17-6.58.95-1.41,1.81-2.88,2.58-4.38,1.84-3.59,3.05-7.45,3.43-11.42.22-2.33.14-4.67-.24-6.98-.24-1.41-.48-2.82-.73-4.23-.47-2.63-.99-5.25-1.82-7.81-1.58-4.85-4.26-9.07-8.22-12.44-5.58-4.75-12.94-7.03-20.42-6.58-1.11.06-2.22.18-3.32.36,6.82-7.3,13.68-14.56,20.6-21.77,7.69-8.02,15.49-15.94,23.39-23.75,14.59,13.24,32.49,29.34,47.81,42.91,11.89,10.51,23.94,20.83,36.16,30.96,4.25,3.52,8.52,7.01,12.84,10.44l-29.94,27.54c-7.56-5.64-17.54-9.07-28.49-9.07-23.61,0-42.75,15.97-42.75,35.68,0,16.14,12.84,29.78,30.46,34.18l-.03,83.56h.05s-.02,0-.02,0l47.77,40.69-48.38,39.51.34.34-1.75,88.29c-16.58,4.91-28.45,18.11-28.45,33.63,0,19.7,19.14,35.68,42.75,35.68,10.8,0,20.67-3.34,28.19-8.86l167.41,130.08c-.06.79-.1,1.59-.1,2.4,0,19.7,19.14,35.68,42.75,35.68s42.75-15.97,42.75-35.68c0-.71-.02-1.42-.07-2.12l166.03-117.31-.15-.22h.61l.86-167.89c16.79-4.81,28.86-18.1,28.86-33.75s-11.87-28.72-28.44-33.63l.62-168.62c16.25-5.05,27.82-18.12,27.82-33.44,0-19.7-19.14-35.68-42.75-35.68-11.47,0-21.88,3.77-29.56,9.9l-120.36-84.48c-.49-19.35-19.44-34.91-42.74-34.91s-42.75,15.97-42.75,35.68c0,1.12.06,2.23.18,3.33l-25.39,23.36c-4.64-3.35-9.25-6.75-13.8-10.22l-6.2-4.72c-6.56-4.98-12.27-9.33-18.68-14.39-3-2.37-5.96-4.78-8.89-7.24-2.16-1.82-4.33-3.61-6.52-5.4-2.35-1.92-4.71-3.83-7.08-5.73-2.88-2.31-5.74-4.65-8.59-7-2.98-2.46-5.91-4.97-8.8-7.54-5.45-4.87-10.89-9.75-16.32-14.64-2.38-2.14-4.76-4.29-7.13-6.44,11.2-9.76,22.35-19.11,34-28.36,9.92-7.87,20.03-15.49,30.32-22.86,11.46-8.18,23.1-16.1,34.92-23.75,5.7-3.68,11.55-7.13,17.53-10.34,3.7-1.96,7.42-3.9,11.15-5.79,2.99-1.51,8.8-4.4,12.58-6.25,2.96-1.45,5.9-2.95,8.82-4.49,1.6-.84,3.19-1.71,4.76-2.59,1.82-1.02,3.62-2.08,5.41-3.17,3.94-2.39,7.69-5.07,11.24-8.01,3.96-3.28,7.54-6.99,10.67-11.08,2.93-3.8,5.37-7.94,7.26-12.35,4.35-10.11,5.61-21.25,3.68-32.01-1.04-5.8-2.97-11.4-5.73-16.6-2.82-5.37-6.34-10.33-10.47-14.77l-5.11-5.53c-1.81-1.96-3.67-3.87-5.58-5.72-2.71-4.91-6.01-9.47-9.83-13.58l-5.11-5.53c-2.23-2.41-4.54-4.75-6.92-7.01-1.34-1.26-2.71-2.48-4.11-3.67-1.67-1.42-3.4-2.78-5.18-4.07-10.78-7.85-23.37-12.13-36.79-11.89-2.34.04-4.68.22-7.01.53-2.35.31-4.68.76-6.98,1.33-4.49,1.02-8.92,2.33-13.25,3.9-2.28.83-4.53,1.73-6.75,2.69-2.25.98-4.47,2-6.67,3.06-3.19,1.55-6.02,2.79-9.16,4.15-6.19,2.68-12.28,5.61-18.24,8.76-3.91,2.05-7.8,4.17-11.64,6.33-4.18,2.36-8.33,4.77-12.45,7.24-8.32,4.99-16.93,10.45-25.14,15.87-8.17,5.41-16.26,10.97-24.24,16.66-8.88,6.33-17.64,12.81-26.28,19.46-15.11,11.6-29.94,23.57-44.48,35.89h0c-3.58,3.03-7.15,6.09-10.7,9.16-12.89-13.21-24.08-24.39-37.15-37.05-5.99-5.8-12.05-11.54-18.18-17.2-3.23-2.98-6.49-5.94-9.77-8.87-3.66-3.27-7.36-6.5-11.09-9.69-5.8-4.97-11.76-9.76-17.86-14.36l-6.58-5.02c-7.01-5.46-14.16-10.75-21.44-15.85-10.85-7.61-22.24-14.42-34.07-20.38-5.45-2.75-11.04-5.23-16.74-7.43-6.32-2.45-12.76-4.56-19.32-6.31l-.08-.02c-7.07-1.86-14.27-3.21-21.54-4.02-4.06-.45-8.13-.73-12.21-.82-4.57-.1-9.39,0-14,.43-8.93.83-17.56,3.73-25.21,8.39-8.39,5.11-15.38,12.21-20.36,20.68-3,5.09-5.25,10.57-6.69,16.28-1.61-1.14-3.23-2.27-4.88-3.37-4.7-3.11-10.07-4.81-15.68-5.4-.7-.57-1.4-1.13-2.1-1.69-4.41-3.53-9.16-7.2-13.8-10.56-2.02-1.47-4.08-2.9-6.17-4.3-5.57-3.68-12.07-5.39-18.82-5.62h.03c-1.38-.05-2.76-.04-4.14.02-3.89.18-7.87.74-11.68,1.51-2.91.59-5.8,1.26-8.67,2.02-2.82.74-5.61,1.54-8.39,2.39-4.21,1.28-9.14,2.87-13.51,4.34-4.68,1.58-9.34,3.19-14,4.81-3.88,1.36-7.84,3.03-11.54,4.75-3.05,1.42-6.07,2.91-9.04,4.47-2.35,1.23-4.69,2.48-7.01,3.77-6.42,3.56-12.73,7.3-18.92,11.2l-11.7,7.38.72,13.11c.19,3.42.35,6.84.48,10.26.75,18.95,1.03,37.92.86,56.88-.1,11.68-.41,23.35-.92,35.02-.33,7.46-.76,14.92-1.31,22.37-.59,8.17-1.35,16.34-2.27,24.48-.46,4.03-.97,8.05-1.53,12.07-.62,4.43-1.32,8.84-2.09,13.25-.71,4.04-1.5,8.06-2.39,12.07-2.57.22-7.35.63-10.08.85-7.86.64-16.15,1.34-23.99,2.26-2.1.25-4.19.52-6.28.82-4.83.68-9.56,1.52-14.29,2.62-4.36,1.01-8.75,2.31-12.91,3.94-6.33,2.49-12.18,5.81-17.09,10.31-.94.87-1.83,1.78-2.66,2.75-.44.51-.87,1.03-1.28,1.56-2.83,3.63-5.88,8.6-8.15,12.55-2.08,3.61-4.04,7.29-5.9,11.01-1.57,3.14-3.02,6.32-4.37,9.54-.85,2.04-1.63,4.11-2.34,6.21-.45,1.36-.86,2.73-1.23,4.11-1.56,5.98-1.94,11.91-.14,17.9,1.02,3.39,2.72,6.56,5.03,9.35,3.48,4.17,8.08,7.23,13.46,8.98l-7.85,4.73c-2.35,1.41-4.68,2.83-7,4.26-9.04,5.65-18.12,11.25-27.23,16.8l-33.31-159.03,21.26-5.39c6.87-1.76,14.18-4.77,20.5-7.85,2.87-1.4,5.7-2.88,8.48-4.43,11.17-6.23,22.45-14.01,31.77-22.65,1.38-1.28,2.72-2.59,4.03-3.93,1.55-1.59,3.05-3.24,4.48-4.93,3.96-4.71,6.36-10.28,7.36-16.15.59-3.49.74-7.01.52-10.54-.15-2.46-.45-4.91-.9-7.34-.86-4.76-2.12-9.29-3.72-13.88-.59-1.71-1.24-3.41-1.94-5.09l-7.75-18.54-20.98,4.16c-1.88.37-3.78.74-5.67,1.08-.08.02-.16.03-.23.04-.37-1.2-.77-2.4-1.18-3.6-.59-1.71-1.24-3.41-1.94-5.09l-7.75-18.54-20.98,4.16c-1.88.37-3.78.74-5.67,1.08-18.67,3.41-38.63,6.32-57.46,8.51-11.32,1.32-22.67,2.4-34.04,3.25-7.47.56-14.95.99-22.44,1.31-8.17.35-16.36.51-24.54.49-5.53-.01-11.07-.08-16.6-.21-6.18-.14-12.36-.38-18.54-.7-6.19-.33-12.36-.76-18.53-1.32-6.87-.62-13.72-1.4-20.55-2.35-5.95-.83-11.89-1.78-17.79-2.86-3.14-.57-6.27-1.17-9.4-1.8-13.84-2.79-28.11-6.21-41.89-9.52l-11.05-2.65c-2.59-.62-5.17-1.25-7.75-1.9-8.55-2.15-17.03-4.54-25.28-7.56-2.55-.94-5.07-1.93-7.57-2.98-2.82-1.18-5.6-2.42-8.37-3.71-2.86-1.34-5.71-2.72-8.53-4.13-2.4-1.2-4.8-2.41-7.19-3.64h0l-.04.02ZM1394.14,1098.81c-.45-2.05-.91-4.09-1.38-6.14-1.41-6.07-2.87-12.12-4.4-18.16-1.88-7.45-3.82-14.89-5.83-22.32-.98-3.64-1.98-7.27-2.98-10.91l75.64-16.59,1.59-.57c2.23-.8,4.39-1.76,6.45-2.87,2.73-1.47,5.27-3.25,7.54-5.28.59-.53,1.17-1.08,1.72-1.64,1.73,8.91,3.33,17.85,4.79,26.8,1.41,8.71,2.71,17.44,3.88,26.18,1.28,9.58,2.45,19.18,3.5,28.79.02.23.05.46.08.69h-69.83c-7.64,0-14.54.69-20.75,2.01h0ZM1452.24,926.27c-1.37-.09-2.74-.1-4.11-.04-.93.04-1.86.11-2.79.21-.72.08-1.45.17-2.16.27-.12.02-.23.03-.35.05-.21-.8-.45-1.59-.72-2.38-1.6-4.6-4.3-8.72-8.01-12.07-4.54-4.1-10.36-6.74-16.61-7.66-2.35-.35-4.72-.47-7.1-.37-.93.04-1.86.11-2.79.21-.72.08-1.45.17-2.16.27-5.62.8-11.24,1.56-16.87,2.3-10.2,1.34-17.44,2.21-28.35,3.53-8.39,1.02-15.88,1.98-23.96,3.14-10.81-28.22-24-58.92-35.5-84.77,1.17.47,2.35.94,3.53,1.4,19.69,7.7,39.9,13.53,60.84,17.5,7.8,1.48,15.64,2.7,23.53,3.68,12.77,1.57,25.58,2.9,38.41,4,.86.07,1.73.14,2.59.22.74,1.92,1.46,3.84,2.19,5.76,1.2,3.2,2.38,6.41,3.53,9.62,6.47,18.09,12,36.58,16.87,55.13h0ZM1877.54,1059.44c.09-.28.18-.55.27-.83,5.25-16.1,9.8-32.33,13.59-48.77.92-4,1.8-8,2.63-12.02l124.33-13.22c-4.53,4.89-9.04,9.8-13.54,14.71-.37.4-.73.8-1.08,1.22-12.65,15.13-25.34,30.22-38.06,45.29l-88.14,13.62h0ZM2112.49,886.58l-.93.04c-.21-.9-.46-1.8-.76-2.69-1.05-3.17-2.69-6.13-4.84-8.77-3.01-3.69-6.99-6.61-11.56-8.48-3.53-1.45-7.32-2.24-11.17-2.4-1.96-.08-3.92,0-5.86.22l-167.91,7.77c1.66-19.81,2.78-39.94,3.28-59.71l24.55,23.43,10.21-4.33,27.54,26.28,100.18-42.5c4.83,4.49,9.46,8.37,14.58,12.76,3.39,2.9,6.92,6.02,10.09,9.18l28.39,28.28c.92.92,1.84,1.83,2.76,2.75-2.03,1.82-4.05,3.69-5.97,5.6-4.21,4.18-8.4,8.37-12.58,12.56h0ZM1501.35,1191.81c18.26,1.24,24.44,16.5,24.44,31.76,0,12.97-6.72,30.07-26.88,30.07s-26.88-17.1-26.88-30.07c0-14.39,5.49-28.78,21.43-31.41l.38,4.45,7.52-4.8h0ZM1529.82,1374.49c0,17.1-7.39,38.32-28.9,38.32-23.52,0-28.9-24.76-28.9-38.32,0-17.69,10.08-33.6,28.9-33.6s28.9,15.92,28.9,33.6h0ZM2362.54,1092.2c4.57,3.45,9.18,6.85,13.82,10.21,5.1,3.58,10.19,7.17,15.27,10.78l2.05,1.45c.95.67,1.91,1.33,2.88,1.98,2.06,1.38,3.73,2.33,5.99,3.56-5.81,4.95,35.74,25,30.54,30.57,0,0,5.88-3.7,15.29-9.63l22.25,15.35,18.29-10.45c1.39-.95,14.15,11.56,15.68,10.82,1.71-.82,7.15,10.23,8.96,9.7.46-.13,1.31-.51,2.36-1l-1.34,116.21h-169.14l-46.12-38.36-.14-75.81c17.84-4.29,30.89-18.01,30.89-34.28,0-3.29-.53-6.47-1.53-9.49l34.01-31.61h0ZM2539.72,1193.07c6.59,3.19,11.8,4.21,16.25,5,13.08,2.32,19.83,1.9,28.38,1.48,6.8-.34,12.26-2.36,15.58-4.31,2.57-1.51,5.05-3.18,7.42-5,8.47-6.5,15.15-14.75,19.75-24.39,1.41-2.95,2.62-5.98,3.62-9.09,1.04-3.21,1.87-6.49,2.5-9.8.59-3.1,1.02-6.22,1.3-9.36.29-3.23.42-6.48.42-9.72,0-7.35-.82-14.57-2.7-21.68-.78-2.94-1.73-5.82-2.87-8.64-2.22-5.52-5.14-10.72-8.69-15.5-1.86-2.5-3.89-4.87-6.07-7.1-2.06-2.1-4.24-4.08-6.54-5.93l-9.64-8.91c-.9-.87-1.83-1.72-2.79-2.53-.98-.84-1.97-1.65-2.99-2.44-1.85-1.44-3.74-2.82-5.68-4.15-3.4-2.43-6.8-4.86-10.22-7.27-3.98-2.81-8-5.56-12.07-8.25-2-1.32-4.03-2.62-6.07-3.88-2.31-1.44-4.65-2.84-7.01-4.19-2.48-1.42-5-2.78-7.55-4.07-.79-.4-1.58-.79-2.37-1.18l.48-41.84c9.5-2.56,17.56-7.82,22.85-14.69l115.09,81.91c-.76,2.67-1.17,5.45-1.17,8.31,0,17.06,14.36,31.33,33.54,34.84l-.61,166.11c-15.1,2.96-27.11,12.6-31.32,24.98h-141.87l1.02-88.7h0ZM2517.7,1010.68c-3.42-1.94-6.78-3.97-10.07-6.05-4.73-2.98-9.91-6.42-14.68-9.66-2.46-1.67-4.92-3.35-7.38-5.02-2.5-1.71-5-3.41-7.51-5.11l17.52-16.29c5.64,5.9,13.47,10.28,22.46,12.27l-.35,29.85h0ZM2711.46,1326.16l-.78,155.41-150.85,109.9c-5.25-5.86-12.6-10.33-21.13-12.62v-276.95h142.09c4.35,11.96,16.03,21.26,30.67,24.26h0ZM2491.48,1591.27l-163.06-127.95c1.06-3.11,1.63-6.4,1.63-9.8,0-16.87-14.04-31.01-32.9-34.72l1.56-78.87,45.41-38.02h170.44v276.43c-9.33,2.07-17.41,6.7-23.08,12.94h0Z"/>
  <path class="st0" d="M2208.97,947.13h0s0,0,0,0c5.15-5.07,10.08-9.82,15.07-14.44.28.24.55.49.82.73,20.04,18.33,43.83,39.79,64.15,57.8,11.36,10.07,23.85,20.75,35.54,30.43l-.02-.02c13.64,11.33,27.65,22.19,42.02,32.58,29.64,20.8,12.99,9.83,37.03,23.66,10.52,6.05,30.36,16.3,36.33,19.31-57.29,37.15-104.05,107.21-104.05,179.92,0,106.12,54.28,208.71,183.32,208.71,48.39,0,128.77-47.53,86.7-56.6-64.81-13.97-57.58-32.21-87.42-47.34-50.35-25.53-59.77-65.27-59.77-104.77s15.46-96.1,71.91-96.1c38.98,0,75.28-8.25,75.28-56.01,0-15.36-4.93-26.21-13.46-34.07l.75-.69-3.21-1.41c-7.08-5.65-16.22-9.62-26.82-12.6-2.13-.96-4.25-1.87-5.52-2.74-13.83-9.85-20.53-17.34-36.31-23.73l-5.43-7.6c-21.65-8.78-34.46-21.49-56.24-36.2l-20.69-12.88c-10.23-6.93-.71-1.49-10.54-8.98l-3.9-4.29c-10.97-8.37-23.42-17.26-33.96-26.16-10.64-8.97-22.41-18.83-32.79-28.11-12.91-11.53-22.7-16.87-35.52-28.5-9.58-8.69-16.37-15.04-25.37-23.81-2.64-2.57,0-6.54-2.45-9.01.48-.43.96-.86,1.42-1.29,19.21-17.5,37.27-33.17,57.16-48.99h-.01c10.26-8.13,20.71-16.01,31.36-23.63l-.02.02c11.78-8.41,23.75-16.55,35.9-24.42h-.02c6.3-4.06,12.76-7.87,19.37-11.42,9.56-5.07,14.73-7.62,24.47-12.43,5.49-2.71,11.66-5.88,16.99-9.15,2.91-1.77,5.69-3.75,8.31-5.92,2.51-2.07,4.77-4.43,6.74-7.01,7.62-9.87,8.75-22.86,2.92-33.89-1.79-3.42-4.03-6.58-6.67-9.39l-5.15-5.59c-3.64-3.93-8.05-8.24-12.52-11.47-9.04-6.58-19.29-8.63-30.14-5.9-7.86,1.78-14.04,4.21-21.53,7.82-3.93,1.9-6.14,2.86-10.15,4.61-5.6,2.43-11.09,5.07-16.48,7.91h.01s-.02,0-.04.01h.03s-.02,0-.03,0c-30.96,16.21-66.76,40.66-96.13,63.26l.02-.02c-14.8,11.36-29.32,23.07-43.54,35.14-9.57,8.12-19.03,16.36-28.37,24.74-7.44-7.78-14.93-15.51-22.48-23.19-10.13-10.31-20.38-20.5-30.78-30.55-11.86-11.48-25.12-23.81-37.89-34.71-5.43-4.65-11-9.13-16.71-13.43l-6.75-5.15c-6.7-5.23-13.54-10.28-20.51-15.16h.02c-9.86-6.9-20.22-13.1-30.97-18.52-9.86-4.97-20.55-9.07-31.22-11.9-5.8-1.54-11.99-2.68-17.95-3.35-6.57-.74-14.48-.95-21.06-.33-10.89,1.02-20.71,7.39-26.23,16.79-4.79,8.09-6.19,17.74-4.37,26.93.88,4.45,2.68,8.75,5.17,12.53,1.8,2.74,3.9,5.35,6.21,7.68,3.52,3.54,7.5,6.86,11.61,9.71,3.41,2.4,6.91,4.66,10.5,6.78h-.02c3.72,2.2,7.5,4.31,11.32,6.35,20.8,11.2,42.17,22.65,59.1,39.13,9.28,9.04,18.74,15.9,27.92,25.04l28.41,28.3h0c9.67,9.64,19.44,19.2,29.29,28.66,5.3,5.11,9.43,11.38,14.86,16.36-7.87,7.57-19.45,16.48-26.88,23.86h-.01c-40.77,40.53-80.59,82.01-119.4,124.41l-.34.37-.32.38c-19.58,23.41-39.24,46.75-58.99,70.01-5.53,6.52-10.87,12.72-16.5,19.14-2.54,2.85-5.04,5.74-7.5,8.66l-.02.02.02-.02s-.02.02-.02.02h0c-3.01,3.54-5.88,7.2-8.62,10.97-3.36,4.55-6.33,9.59-8.64,14.75-1.73,3.85-2.92,8-3.51,12.18-.99,6.82.1,13.79,3.15,19.97l.49,1c2.45,4.42,6.49,8.05,11.11,10.07l2.55,1.06,3.84.96c3.07.63,7.9,1.03,11.19,1.12,2.98.11,5.97.17,8.96.17h0c4.69,0,9.37-.06,14.05-.18,4.74-.12,15.91-.47,20.61-.71,9.11-.46,17.83-.6,26.94-.82l6.14-11.54c1.95-3.67,3.96-7.3,6.05-10.89v-.02c2.34-4.04,4.68-7.78,7.3-11.63,2.23-3.26,4.62-6.41,7.16-9.44l10.15-11.89c14.13-16.82,53.59-68.42,72.84-93.78,18.12-20.27,36.59-40.23,55.41-59.85,8.54-8.9,17.2-17.68,25.99-26.34h0ZM1935.84,1111.98s.01-.02.02-.02l-.02.02h0ZM2396.36,674.08l-.04.02s.02-.01.04-.02h0Z"/>
  <polygon class="st0" points="2064.43 943.39 2064.42 943.39 2064.43 943.39 2064.43 943.39"/>
  <path class="st0" d="M2366.56,1054.21s0,0,.01,0h-.01Z"/>
  <path class="st4" d="M2547.52,1199.07c38.98,0,75.28-8.38,75.28-56.87,0-43.7-38.31-57.47-86.7-57.47-129.04,0-194.91,104.16-194.91,211.9s65.87,211.9,194.91,211.9c48.39,0,86.7-13.77,86.7-57.47,0-48.49-36.29-56.87-75.28-56.87-56.46,0-71.91-57.47-71.91-97.57s15.46-97.57,71.91-97.57h0Z"/>
  <path class="st0" d="M1571.56,1063.83l.1.47c-4.14,2.1-3.85,1.8-.1-.47h0ZM1449.3,811.79c.55-.08,1.27-.1,2.21-.06,1.87.08.96.12-2.21.06h0ZM1449.3,811.79c-4.39.65,2.44,5.03-1.37,10.67-4.97,7.35,11.44,25.51,32.09,109.05,20.65,83.53,27.28,123.64,35.59,221.05l237.53-151.69s-6.81,27.46-20.08,48.81c-12.21,19.64-19.29,33.31-38.06,56.1-17.52,21.27-49.78,46.88-49.78,46.88,0,0,1.61,14.8,5.82,25.04,2.52,6.13,5.96,10.62,5.96,10.62l486.99-104.8s34.8-21.9,32.94-32.76c-2.01-11.74-1.93-12.17-7.77-10.71-8.87,2.22-40.85,6-40.85,6l-96.26,11.29-244.57,37.79s12.51-21.83,21.71-47.13c14.93-41.05,21.84-73.09,25.66-95.21l229.05-24.35c3.05-.4,3.7-.65,6.49-2.47,6.31-4.12,28.18-43.12,9.53-40.09l-238.77,11.05s13.57-88.68,7.56-180.92l94.38,90.06,75-31.82s-95.6-92.8-133.92-118.36c-6.72-4.48-29.82,3.3-55.68,12.32-16.2,5.65-41.25,21.65-41.25,21.65,0,0,7.99,136.54-13.95,208.98-35.52,4.34-73.72,3.49-87.33,16.02-3.94,3.62-18.83,29.81-19.71,39.75-.53,6.07,3.71,6.9,10.76,4.93,15.38-4.28,46.03-2.3,67.98-2.61-17.54,13.46-76.32,48.15-85.1,53.64-42,26.25-78.08,47.08-88.32,53.27l-53.13-253.64s13.91-3.51,43.7-11.06c14.79-3.75,42.39-19.4,56.13-35.64,7.11-8.41-2.29-30.23-2.29-30.23,0,0-76.06,15.36-149.47,15.15-73.41-.21-105.71-9.05-160.57-22.16-31.48-7.52-44.57-12.62-72.91-27.3-18.48-9.57-34.8-19.71-51.96-31.74-2.68-1.88-3.29-1.88-6.07-.04l-28.76,21.65c-6.26,3.7-17.58,12.36-7.92,31.35,11.11,21.84,18.39,38.49,41.34,96.18,24.16,60.73,36.84,103.15,47.01,137.3-20.41,4.12-29.94,6.29-35.58,35.56-4.95,25.72,4.54,29.72,19.76,27.35,16.02-2.5,13.77-2.41,27.32-3.94,8.05,22.51,22.98,109.25,24.58,141.15.37,7.45,1.39,27.15,15.55,13.14l49.61-37.69c14.52-10.31,8.1-28.29,6.18-38.64-4.88-26.38-19.75-79.81-23.28-90.3l99.28-21.78c7.92-2.87,11.6-8.78,10.64-23.46l-1.96-22.92c-.71-7.4-6.53-6.62-9.41-6.22-51,7.2-55.76,5.88-118.87,17.12-11.05-38.59-39.49-106.78-78.92-190.75,44.84,27.13,87.52,45.44,142.74,52.27,44.6,5.52,83.81,7,94.97,7.21h0v.02ZM2068.9,955.13h-.01.01Z"/>
  <path d="M2276.49,1302.1c0-99.64-39.65-208.71-172.06-208.71s-172.06,109.07-172.06,208.71,39.65,208.71,172.06,208.71,172.06-109.07,172.06-208.71h0ZM2064.78,1302.1c0-50.7,4.7-101.99,39.65-101.99s39.65,51.29,39.65,101.99-4.7,101.99-39.65,101.99-39.65-51.29-39.65-101.99h0Z"/>
  <path class="st10" d="M2442.74,1106.73c-68.43,35.95-103.16,112.29-103.16,190.53,0,107.75,65.87,211.9,194.91,211.9,48.39,0,86.7-13.77,86.7-57.47,0-48.49-36.29-56.87-75.28-56.87-56.46,0-71.91-57.47-71.91-97.57s15.46-97.57,71.91-97.57c38.98,0,75.28-8.38,75.28-56.87,0-21.14-8.97-35.28-23.71-44.24-28.15-20.89-56.31-40.15-79.16-55.31-24.85-16.48-39.9-26.39-61.68-41.1l.02.02c-10.23-6.93-20.26-14.14-30.09-21.63h.01c-10.97-8.36-24.2-18.22-34.74-27.12-10.64-8.97-21.16-16.87-31.54-26.15-12.91-11.53-21.58-19.37-34.4-31-9.58-8.69-16.45-15.18-25.45-23.95-2.64-2.57-5.16-5.06-7.62-7.53.48-.43.96-.86,1.42-1.29,19.21-17.5,37.27-33.17,57.16-48.99h-.01c10.26-8.13,20.71-16.01,31.36-23.63l-.02.02c11.78-8.41,23.75-16.55,35.9-24.42h-.02c6.3-4.06,12.76-7.87,19.37-11.42,9.56-5.07,14.73-7.62,24.47-12.43,5.49-2.71,11.66-5.88,16.99-9.15,2.91-1.77,5.69-3.75,8.31-5.92,2.51-2.07,4.77-4.43,6.74-7.01,7.62-9.87,8.75-22.86,2.92-33.89-1.79-3.42-4.03-6.58-6.67-9.39l-5.15-5.59c-3.64-3.93-8.05-8.24-12.52-11.47-9.04-6.58-19.29-8.63-30.14-5.9-7.86,1.78-14.04,4.21-21.53,7.82-3.93,1.9-6.14,2.86-10.15,4.61-5.6,2.43-11.09,5.07-16.49,7.91h.01s-.02,0-.04.01h.03s-.02,0-.03,0c-30.96,16.21-66.76,40.66-96.13,63.26l.02-.02c-14.8,11.36-29.32,23.07-43.54,35.14-9.57,8.12-19.03,16.36-28.37,24.74-7.44-7.78-14.93-15.51-22.48-23.19-10.13-10.31-20.38-20.5-30.78-30.55-11.86-11.48-25.12-23.81-37.89-34.71-5.43-4.65-11-9.13-16.71-13.43l-6.75-5.15c-6.7-5.23-13.54-10.28-20.51-15.16h.02c-9.86-6.9-20.22-13.1-30.97-18.52-9.86-4.97-20.55-9.07-31.22-11.9-5.8-1.54-11.99-2.68-17.95-3.35-6.57-.74-14.48-.95-21.06-.33-10.89,1.02-20.71,7.39-26.23,16.79-4.79,8.09-6.19,17.74-4.37,26.93.88,4.45,2.68,8.75,5.17,12.53,1.8,2.74,3.9,5.35,6.21,7.68,3.52,3.54,7.5,6.86,11.61,9.71,3.41,2.4,6.91,4.66,10.5,6.78h-.02c3.72,2.2,7.5,4.31,11.32,6.35,20.8,11.2,42.17,22.65,59.1,39.13,9.28,9.04,18.74,15.9,27.92,25.04l28.41,28.3h0c9.67,9.64,19.44,19.2,29.29,28.66,5.3,5.11,9.43,11.38,14.86,16.36-7.87,7.57-19.45,16.48-26.88,23.86h-.01c-40.77,40.53-80.59,82.01-119.4,124.41l-.34.37-.32.38c-19.58,23.41-39.24,46.75-58.99,70.01-5.53,6.52-10.87,12.72-16.5,19.14-2.54,2.85-5.04,5.74-7.5,8.66l-.02.02.02-.02s-.02.02-.02.02h0c-3.01,3.54-5.88,7.2-8.62,10.97-3.36,4.55-6.33,9.59-8.64,14.75-1.73,3.85-2.92,8-3.51,12.18-.99,6.82.1,13.79,3.15,19.97l.49,1c2.45,4.42,6.49,8.05,11.11,10.07l2.55,1.06,3.84.96c3.07.63,7.9,1.03,11.19,1.12,2.98.11,5.97.17,8.96.17h0c4.69,0,9.37-.06,14.05-.18,4.74-.12,15.91-.47,20.61-.71,9.11-.46,17.83-.6,26.94-.82l6.14-11.54c1.95-3.67,3.96-7.3,6.05-10.89v-.02c2.34-4.04,4.68-7.78,7.3-11.63,2.23-3.26,4.62-6.41,7.16-9.44l10.15-11.89c14.13-16.82,53.59-68.42,72.84-93.78,18.12-20.27,36.59-40.23,55.41-59.85,8.54-8.9,17.2-17.68,25.99-26.34h0s0,0,0,0c5.15-5.07,10.08-9.82,15.07-14.44.28.24.55.49.82.73,20.04,18.33,43.83,39.79,64.15,57.8,11.36,10.07,23.85,20.75,35.54,30.43l-.02-.02c13.64,11.33,27.65,21.59,42.02,31.97,29.64,20.8,15.44,11.13,36.43,25.48,9.54,6.52,18.09,12.85,41.36,27.03h0ZM1934.23,1112.6s.01-.02.02-.02l-.02.02h0ZM2394.76,674.7l-.04.02s.02-.01.04-.02h0Z"/>
  <polygon class="st9" points="2062.82 944.01 2062.82 944.01 2062.82 944.01 2062.82 944.01"/>
  <path class="st9" d="M2364.96,1054.22s0,0,.01,0h-.01Z"/>
  <path class="st2" d="M2547.43,1211.93c9.15.08,18.3-.5,27.37-1.76h.04c4.98-.71,10.17-1.86,15-3.27,5.84-1.7,11.44-4.11,16.7-7.19,15.23-8.87,24.35-23.61,27.44-40.57,1.02-5.58,1.52-11.25,1.49-16.94.02-4.77-.41-9.53-1.27-14.22-3.22-18.27-14.19-32.74-29.65-41.66h0c-5.01-2.9-10.3-5.28-15.78-7.11h.02c-5.68-1.9-11.48-3.39-17.37-4.44h.02c-5.64-1.01-11.33-1.74-17.04-2.18-6.09-.47-12.2-.7-18.31-.69-11.58-.02-23.14.82-34.6,2.51-12.97,1.91-25.73,5.07-38.12,9.44-56,19.71-96.65,63.66-117.72,118.48-5.5,14.28-9.68,29.06-12.5,44.14-3.1,16.54-4.65,33.34-4.64,50.18-.06,26.45,3.84,52.98,11.56,78.24,4.06,13.3,9.4,26.39,15.75,38.74,7.09,13.82,15.68,26.8,25.59,38.7h0c18.18,21.84,41.09,39.38,66.83,51.04,13.18,5.97,27.23,10.52,41.38,13.43,15.26,3.13,30.9,4.68,46.47,4.64,14.76.08,30.47-1.26,44.95-4.99,17.42-4.44,34.15-13.3,44.36-28.85,3.43-5.23,6.08-11.2,7.67-17.28,1.64-6.24,2.45-12.78,2.4-19.24.01-4.19-.25-8.38-.79-12.54v.03c-.63-4.98-1.77-9.88-3.41-14.62-5.59-16.47-17.99-28.59-34.19-35.01-5.3-2.1-10.78-3.7-16.38-4.78h.03c-5.32-1.03-10.69-1.76-16.09-2.16h0c-5.71-.43-11.44-.64-17.16-.62-7.74.02-15.09-1.25-22.1-4.32-3.56-1.57-6.9-3.59-9.96-6.02-3.49-2.79-6.6-6.03-9.28-9.63-5.96-8.02-10.34-18-13.03-27.84-5.89-21.87-6.37-45.35-1.57-67.49,2.33-10.68,5.87-20.48,11.5-29.62,2.21-3.56,4.78-6.88,7.67-9.88,3.06-3.17,6.54-5.9,10.33-8.1,3.74-2.15,7.76-3.76,11.93-4.81,4.74-1.17,9.6-1.75,14.47-1.72h0ZM2462.94,1296.65c-.01,18.22,2.84,37.2,9.19,54.42v-.02c6.93,18.95,18.8,36,36.38,46.15,5.72,3.3,12.03,5.84,18.43,7.43,6.7,1.66,13.78,2.51,20.68,2.45,8.03-.06,15.77.42,23.73,1.52,3.94.57,7.66,1.39,11.48,2.51,3.94,1.15,7.53,2.7,11.08,4.77,5.26,3.07,9.44,7.62,12.07,13.17,3.16,6.81,4.17,14.52,4.16,22.02,0,6.81-1.02,13-3.93,18.94-1.41,2.85-3.24,5.46-5.42,7.76-8.67,9.01-21.94,13.32-33.75,15.44-10.22,1.83-20.57,2.48-30.93,2.48-22.42,0-43.56-3.19-64.41-10.53-23.08-8.13-44.01-21.4-61.32-38.9h0c-8.54-8.63-16.16-18.15-22.75-28.4-23.06-35.86-33.73-78.65-33.77-121.22-.02-24.06,3.41-47.6,10.42-70.59,15.18-49.5,47.11-91.18,94.28-112.61,11.57-5.23,23.67-9.15,36.08-11.7,13.99-2.86,27.21-4.11,41.48-4.12,8.91,0,16.88.45,25.72,1.64,9.35,1.29,17.91,3.39,26.3,7.35,3.17,1.5,6.17,3.35,8.94,5.53,2.81,2.21,5.26,4.87,7.25,7.87,1.92,2.96,3.37,6.21,4.27,9.63,1.1,4.21,1.55,8.19,1.54,12.55-.03,12.67-2.66,25.37-13.35,33.31-2.76,2.02-5.75,3.68-8.92,4.93-3.88,1.54-7.81,2.68-11.9,3.47-8.9,1.73-19.06,2.35-28.39,2.33-5.11-.02-10.21.42-15.25,1.3-26.41,4.62-45.39,22.04-56.41,45.69-2.93,6.28-5.41,13-7.23,19.7-3.85,14.15-5.78,29.07-5.74,43.76h0Z"/>
</svg>